<svg width="16" height="16" viewBox="0 0 16 16" xmlns="http://www.w3.org/2000/svg">
    <g fill="none" fill-rule="evenodd">
        <path d="M0 0h16v16H0z"/>
        <g fill="#060606" fill-rule="nonzero">
            <path d="M8.568.4a3.249 3.249 0 1 0 0 6.497 3.249 3.249 0 0 0 0-6.497zm0 1.2a2.049 2.049 0 1 1 0 4.097 2.049 2.049 0 0 1 0-4.097zM7.81 8.346a.6.6 0 1 1 0 1.2C4.367 9.546 1.6 12.005 1.6 15a.6.6 0 0 1-1.2 0c0-3.692 3.333-6.654 7.41-6.654zM14.87 10.303a.6.6 0 0 1 0 1.2H9a.6.6 0 0 1 0-1.2h5.87z"/>
            <path d="M12.489 8.522a.6.6 0 0 1 .848 0l1.957 1.956a.6.6 0 0 1-.849.849L12.49 9.37a.6.6 0 0 1 0-.848zM15 12.433a.6.6 0 0 1 0 1.2H9.13a.6.6 0 1 1 0-1.2H15z"/>
            <path d="M8.706 12.609a.6.6 0 0 1 .849 0l1.956 1.956a.6.6 0 1 1-.848.849l-1.957-1.957a.6.6 0 0 1 0-.848z"/>
        </g>
    </g>
</svg>
