<svg width="16" height="16" viewBox="0 0 16 16" xmlns="http://www.w3.org/2000/svg">
    <g fill="none" fill-rule="evenodd">
        <path d="M0 0h16v16H0z"/>
        <g fill="#060606">
            <path d="m6.841 1.524-.936 3.161a2.4 2.4 0 0 1-1.62 1.62l-3.16.936a1 1 0 0 0 0 1.918l3.16.936a2.4 2.4 0 0 1 1.62 1.62l.936 3.16a1 1 0 0 0 1.918 0l.936-3.16a2.4 2.4 0 0 1 1.62-1.62l3.16-.936a1 1 0 0 0 0-1.918l-3.16-.936a2.4 2.4 0 0 1-1.62-1.62l-.936-3.16a1 1 0 0 0-1.918 0zm.959.987.745 2.515.067.204a3.6 3.6 0 0 0 2.362 2.225l2.514.745-2.514.745-.204.067a3.6 3.6 0 0 0-2.225 2.362L7.8 13.888l-.745-2.514-.067-.204a3.6 3.6 0 0 0-2.362-2.225L2.111 8.2l2.515-.745a3.6 3.6 0 0 0 2.43-2.429L7.8 2.511z" fill-rule="nonzero"/>
            <path d="m11.964 2.786-.64-.19a.1.1 0 0 1 0-.192l.64-.19a1.853 1.853 0 0 0 1.25-1.25l.19-.64a.1.1 0 0 1 .192 0l.19.64a1.853 1.853 0 0 0 1.25 1.25l.64.19a.1.1 0 0 1 0 .192l-.64.19a1.853 1.853 0 0 0-1.25 1.25l-.19.64a.1.1 0 0 1-.192 0l-.19-.64a1.853 1.853 0 0 0-1.25-1.25z"/>
        </g>
    </g>
</svg>
