<svg width="16" height="16" viewBox="0 0 16 16" xmlns="http://www.w3.org/2000/svg">
    <g fill="none" fill-rule="evenodd">
        <path d="M0 0h16v16H0z"/>
        <path d="M12.257.1a2.6 2.6 0 0 1 2.6 2.6v6.395a.6.6 0 1 1-1.2 0V2.7a1.4 1.4 0 0 0-1.4-1.4H3.743a1.4 1.4 0 0 0-1.4 1.4v10.6a1.4 1.4 0 0 0 1.4 1.4h3.084a.6.6 0 0 1 0 1.2H3.743a2.6 2.6 0 0 1-2.6-2.6V2.7a2.6 2.6 0 0 1 2.6-2.6h8.514z" fill="#060606" fill-rule="nonzero"/>
        <path d="M10.138 3.02a.6.6 0 1 1 0 1.2h-5.11a.6.6 0 1 1 0-1.2h5.11zM10.138 5.94a.6.6 0 1 1 0 1.2h-5.11a.6.6 0 1 1 0-1.2h5.11zM7.218 8.86a.6.6 0 1 1 0 1.2h-2.19a.6.6 0 1 1 0-1.2h2.19z" fill="#060606" fill-rule="nonzero"/>
        <path d="M12.328 12.745c0 .504-.204.96-.535 1.29a1.825 1.825 0 1 1 .535-1.29z"/>
        <path d="M13.793 10.905a.6.6 0 0 1 .929.76l-3.285 4.015a.6.6 0 0 1-.849.08l-2.19-1.824a.6.6 0 0 1 .768-.922l1.725 1.437 2.902-3.546z" fill="#060606" fill-rule="nonzero"/>
    </g>
</svg>
