<svg width="16" height="16" viewBox="0 0 16 16" xmlns="http://www.w3.org/2000/svg">
    <g fill="none" fill-rule="evenodd">
        <path d="M0 0h16v16H0z"/>
        <g fill="#060606" fill-rule="nonzero">
            <path d="M14.8 5.61H1.2a.6.6 0 0 0-.6.6v6.59a2.6 2.6 0 0 0 2.6 2.6h9.6a2.6 2.6 0 0 0 2.6-2.6V6.21a.6.6 0 0 0-.6-.6zm-.6 1.2v5.99a1.4 1.4 0 0 1-1.4 1.4H3.2l-.135-.006A1.4 1.4 0 0 1 1.8 12.8V6.81h12.4z"/>
            <path d="M12.8 1.674H3.2a2.6 2.6 0 0 0-2.6 2.6V6.21a.6.6 0 0 0 .6.6h13.6a.6.6 0 0 0 .6-.6V4.274a2.6 2.6 0 0 0-2.6-2.6zm0 1.2.135.006A1.4 1.4 0 0 1 14.2 4.274V5.61H1.8V4.274a1.4 1.4 0 0 1 1.4-1.4h9.6z"/>
            <path d="M5.137.6a.6.6 0 0 1 .6.6v2.863a.6.6 0 1 1-1.2 0V1.2a.6.6 0 0 1 .6-.6zM10.863.6a.6.6 0 0 1 .6.6v2.863a.6.6 0 0 1-1.2 0V1.2a.6.6 0 0 1 .6-.6z"/>
        </g>
    </g>
</svg>
