<svg width="16" height="16" viewBox="0 0 16 16" xmlns="http://www.w3.org/2000/svg">
    <g fill="none" fill-rule="evenodd">
        <path d="M0 0h16v16H0z"/>
        <g fill="#060606" fill-rule="nonzero">
            <path d="M11.622.902H4.378a2.6 2.6 0 0 0-2.546 2.073L.454 9.625a2.6 2.6 0 0 0-.054.528v2.345a2.6 2.6 0 0 0 2.6 2.6h10a2.6 2.6 0 0 0 2.6-2.6v-2.345a2.6 2.6 0 0 0-.054-.528l-1.378-6.65A2.6 2.6 0 0 0 11.622.902zm0 1.2a1.4 1.4 0 0 1 1.37 1.116l1.379 6.65c.02.094.029.19.029.285v2.345a1.4 1.4 0 0 1-1.4 1.4H3a1.4 1.4 0 0 1-1.4-1.4v-2.345c0-.096.01-.191.03-.285l1.377-6.65a1.4 1.4 0 0 1 1.371-1.115h7.244z"/>
            <path d="M3.721 9.348c.916 0 1.724.599 1.99 1.475.112.371.453.624.84.624h2.897a.879.879 0 0 0 .841-.624 2.079 2.079 0 0 1 1.99-1.476H15v1.2h-2.721a.879.879 0 0 0-.841.625 2.079 2.079 0 0 1-1.99 1.475H6.552c-.916 0-1.724-.599-1.99-1.475a.879.879 0 0 0-.841-.625H1v-1.2h2.721zM9.75 3.748a.6.6 0 1 1 0 1.2h-3.5a.6.6 0 1 1 0-1.2h3.5zM10.8 6.547a.6.6 0 0 1 0 1.2H5.2a.6.6 0 1 1 0-1.2h5.6z"/>
        </g>
    </g>
</svg>
