<svg width="16" height="16" viewBox="0 0 16 16" xmlns="http://www.w3.org/2000/svg">
    <g fill="none" fill-rule="evenodd">
        <path d="M0 0h16v16H0z"/>
        <g fill="#060606" fill-rule="nonzero">
            <path d="M8 .4a7.577 7.577 0 0 0-5.379 2.23A7.6 7.6 0 1 0 8 .4zm0 1.2c1.723 0 3.336.683 4.53 1.879A6.4 6.4 0 1 1 8 1.6z"/>
            <path d="M2.4 7.4a.6.6 0 1 1 0 1.2H1a.6.6 0 1 1 0-1.2h1.4zM2.622 2.63a.6.6 0 0 1 .848 0l1.095 1.096a.6.6 0 0 1-.848.848L2.622 3.48a.6.6 0 0 1 0-.849zM8 .4a.6.6 0 0 1 .6.6v1.4a.6.6 0 1 1-1.2 0V1A.6.6 0 0 1 8 .4zM15 7.4a.6.6 0 0 1 0 1.2h-1.4a.6.6 0 0 1 0-1.2H15zM12.53 2.63a.6.6 0 0 1 .848.849l-1.095 1.095a.6.6 0 0 1-.848-.848L12.53 2.63zM8 6a.6.6 0 0 1 .6.6v4.2a.6.6 0 0 1-1.2 0V6.6A.6.6 0 0 1 8 6z"/>
            <path d="M8 10.2c-2.078 0-4.08.539-5.846 1.548a.6.6 0 0 0-.178.887A7.587 7.587 0 0 0 8 15.6a7.587 7.587 0 0 0 6.024-2.965.6.6 0 0 0-.178-.887A11.748 11.748 0 0 0 8 10.2zm0 1.2.373.006c1.362.047 2.681.352 3.902.891l.326.15-.056.06A6.381 6.381 0 0 1 8 14.4l-.273-.006a6.38 6.38 0 0 1-4.272-1.888l-.056-.059.326-.15A10.563 10.563 0 0 1 8 11.4z"/>
        </g>
    </g>
</svg>
