<svg width="16" height="16" viewBox="0 0 16 16" xmlns="http://www.w3.org/2000/svg">
    <g fill="none" fill-rule="evenodd">
        <path d="M0 0h16v16H0z"/>
        <g fill="#060606" fill-rule="nonzero">
            <path d="M5.067.8a.6.6 0 1 1 0 1.2H3.4A1.4 1.4 0 0 0 2 3.4v1.667a.6.6 0 1 1-1.2 0V3.4A2.6 2.6 0 0 1 3.4.8h1.667zM1.4 10.333a.6.6 0 0 1 .6.6V12.6A1.4 1.4 0 0 0 3.4 14h1.667a.6.6 0 0 1 0 1.2H3.4a2.6 2.6 0 0 1-2.6-2.6v-1.667a.6.6 0 0 1 .6-.6zM14.6 10.333a.6.6 0 0 1 .6.6V12.6a2.6 2.6 0 0 1-2.6 2.6h-1.667a.6.6 0 0 1 0-1.2H12.6a1.4 1.4 0 0 0 1.4-1.4v-1.667a.6.6 0 0 1 .6-.6zM12.6.8a2.6 2.6 0 0 1 2.6 2.6v1.667a.6.6 0 0 1-1.2 0V3.4A1.4 1.4 0 0 0 12.6 2h-1.667a.6.6 0 1 1 0-1.2H12.6zM8 4.467a.6.6 0 0 1 .6.6v5.866a.6.6 0 0 1-1.2 0V5.067a.6.6 0 0 1 .6-.6zM10.933 4.467a.6.6 0 0 1 .6.6v5.866a.6.6 0 1 1-1.2 0V5.067a.6.6 0 0 1 .6-.6zM5.067 4.467a.6.6 0 0 1 .6.6v5.866a.6.6 0 0 1-1.2 0V5.067a.6.6 0 0 1 .6-.6z"/>
        </g>
    </g>
</svg>
