<svg width="16" height="16" viewBox="0 0 16 16" xmlns="http://www.w3.org/2000/svg">
    <g fill="none" fill-rule="evenodd">
        <path d="M0 0h16v16H0z"/>
        <g fill="#060606" fill-rule="nonzero">
            <path d="M12.7 8.889H3.3a2.6 2.6 0 0 0-2.6 2.6V12.7a2.6 2.6 0 0 0 2.6 2.6h9.4a2.6 2.6 0 0 0 2.6-2.6v-1.211a2.6 2.6 0 0 0-2.6-2.6zm0 1.2a1.4 1.4 0 0 1 1.4 1.4V12.7a1.4 1.4 0 0 1-1.4 1.4H3.3a1.4 1.4 0 0 1-1.4-1.4v-1.211a1.4 1.4 0 0 1 1.4-1.4h9.4zM6.511 1.072a.6.6 0 0 1 0 1.2H3.3a1.4 1.4 0 0 0-1.4 1.4v1.211a1.4 1.4 0 0 0 1.4 1.4h3.211a.6.6 0 1 1 0 1.2H3.3a2.6 2.6 0 0 1-2.6-2.6v-1.21a2.6 2.6 0 0 1 2.6-2.6h3.211zM11.722.7a3.578 3.578 0 1 0 0 7.156 3.578 3.578 0 0 0 0-7.156zm0 1.2a2.378 2.378 0 1 1 0 4.756 2.378 2.378 0 0 1 0-4.756z"/>
            <path d="M11.722 2.561a1.717 1.717 0 1 0 0 3.433 1.717 1.717 0 0 0 0-3.433zm0 1.2a.517.517 0 1 1 0 1.033.517.517 0 0 1 0-1.033z"/>
        </g>
    </g>
</svg>
