<svg width="16" height="16" viewBox="0 0 16 16" xmlns="http://www.w3.org/2000/svg">
    <g fill="none" fill-rule="evenodd">
        <path d="M0 0h16v16H0z"/>
        <g fill="#060606" fill-rule="nonzero">
            <path d="M9.337.999a1.5 1.5 0 0 1-2.674 0 .6.6 0 0 0-.695-.306 7.588 7.588 0 0 0-3.142 1.759.6.6 0 0 0-.13.704 1.5 1.5 0 0 1-1.202 2.155l-.17.007a.6.6 0 0 0-.576.42 7.632 7.632 0 0 0-.194 3.81.6.6 0 0 0 .647.478 1.5 1.5 0 0 1 1.296 2.46.6.6 0 0 0 .026.802 7.598 7.598 0 0 0 3.305 2.015.6.6 0 0 0 .743-.392 1.5 1.5 0 0 1 2.858 0 .6.6 0 0 0 .743.392 7.598 7.598 0 0 0 3.305-2.015.6.6 0 0 0 .026-.803 1.5 1.5 0 0 1 1.296-2.46.6.6 0 0 0 .647-.476 7.632 7.632 0 0 0-.194-3.81.6.6 0 0 0-.577-.42h-.03a1.5 1.5 0 0 1-1.341-2.163.6.6 0 0 0-.13-.704A7.588 7.588 0 0 0 10.032.693.6.6 0 0 0 9.337 1zm.788.983.17.06c.571.22 1.108.52 1.594.893l.167.135-.035.133c-.047.2-.071.406-.071.616l.005.17a2.701 2.701 0 0 0 2.192 2.483l.065.01.057.241c.087.423.131.856.131 1.296l-.008.326a6.452 6.452 0 0 1-.025.325l-.021.166-.035.004a2.7 2.7 0 0 0-2.361 2.679l.008.213c.028.354.125.694.282 1.004l.026.05-.09.083c-.53.456-1.13.824-1.78 1.086l-.079.03-.054-.09A2.7 2.7 0 0 0 8 12.668l-.185.006a2.701 2.701 0 0 0-2.078 1.22l-.055.09-.079-.03a6.399 6.399 0 0 1-1.779-1.086l-.091-.083.027-.05c.189-.372.29-.787.29-1.217l-.005-.171A2.7 2.7 0 0 0 1.689 8.84l-.036-.004-.02-.166a6.483 6.483 0 0 1-.033-.651l.008-.329c.017-.327.058-.65.123-.967l.056-.241.064-.01A2.7 2.7 0 0 0 4.05 3.819l-.008-.209a2.697 2.697 0 0 0-.063-.407l-.036-.133.168-.135a6.388 6.388 0 0 1 1.594-.893l.169-.06.024.031a2.698 2.698 0 0 0 4.204 0l.023-.031z"/>
            <path d="M8 4.968a3.05 3.05 0 1 0 0 6.1 3.05 3.05 0 0 0 0-6.1zm0 1.2a1.85 1.85 0 1 1 0 3.7 1.85 1.85 0 0 1 0-3.7z"/>
        </g>
    </g>
</svg>
