<svg width="16" height="16" viewBox="0 0 16 16" xmlns="http://www.w3.org/2000/svg">
    <g fill="none" fill-rule="evenodd">
        <path d="M0 0h16v16H0z"/>
        <g fill="#060606" fill-rule="nonzero">
            <path d="M7.997.4a.6.6 0 1 1 0 1.2A6.4 6.4 0 0 0 8 14.4a.6.6 0 0 1 0 1.2A7.6 7.6 0 0 1 .4 8C.4 3.801 3.801.4 7.997.4zM11.076 4.076a.6.6 0 0 1 .848 0l3.5 3.5a.6.6 0 0 1 0 .848l-3.5 3.5a.6.6 0 0 1-.848-.848L14.15 8l-3.075-3.076a.6.6 0 0 1-.07-.765l.07-.083z"/>
            <path d="M15 7.397a.6.6 0 0 1 0 1.2H4.889a.6.6 0 1 1 0-1.2H15z"/>
        </g>
    </g>
</svg>
