<svg width="16" height="16" viewBox="0 0 16 16" xmlns="http://www.w3.org/2000/svg">
    <g fill="none" fill-rule="evenodd">
        <path d="M0 0h16v16H0z"/>
        <g fill="#060606" fill-rule="nonzero">
            <path d="M12.257 1.143H3.743a2.6 2.6 0 0 0-2.6 2.6V13.3a2.6 2.6 0 0 0 2.6 2.6h8.514a2.6 2.6 0 0 0 2.6-2.6V3.743a2.6 2.6 0 0 0-2.6-2.6zm0 1.2a1.4 1.4 0 0 1 1.4 1.4V13.3a1.4 1.4 0 0 1-1.4 1.4H3.743a1.4 1.4 0 0 1-1.4-1.4V3.743a1.4 1.4 0 0 1 1.4-1.4h8.514z"/>
            <path d="M5.393.1a.6.6 0 0 1 .6.6v2.086a.6.6 0 1 1-1.2 0V.7a.6.6 0 0 1 .6-.6zM8.365 5.888a.6.6 0 1 1 0 1.2H4.35a.6.6 0 1 1 0-1.2h4.015zM11.65 8.808a.6.6 0 0 1 0 1.2h-7.3a.6.6 0 1 1 0-1.2h7.3zM10.607.1a.6.6 0 0 1 .6.6v2.086a.6.6 0 1 1-1.2 0V.7a.6.6 0 0 1 .6-.6z"/>
        </g>
    </g>
</svg>
