<svg width="24" height="24" viewBox="0 0 24 24" xmlns="http://www.w3.org/2000/svg">
    <g fill="none" fill-rule="evenodd">
        <path d="M0 0h24v24H0z"/>
        <path d="M11.05 11.05H6.774a4.275 4.275 0 1 1 4.276-4.275v4.275zm6.175 0H12.95V6.775a4.275 4.275 0 0 1 8.551 0 4.318 4.318 0 0 1-4.276 4.275h.001zM6.775 21.5a4.275 4.275 0 1 1 0-8.55h4.275v4.275A4.288 4.288 0 0 1 6.774 21.5h.001zm10.45 0a4.258 4.258 0 0 1-4.276-4.275V12.95h4.275a4.275 4.275 0 1 1 0 8.55h.001z" fill="#0687FF" fill-rule="nonzero"/>
    </g>
</svg>
