<svg width="60" height="60" viewBox="0 0 60 60" xmlns="http://www.w3.org/2000/svg">
    <g fill="none" fill-rule="evenodd">
        <path d="M0 0h60v60H0z"/>
        <g fill-rule="nonzero">
            <path d="M29.082 48.872a20.922 20.922 0 0 1-8.264-1.694 21.51 21.51 0 0 1-6.79-4.599 21.51 21.51 0 0 1-4.598-6.79 20.93 20.93 0 0 1-1.693-8.263 22.195 22.195 0 0 1 1.693-8.559 21.739 21.739 0 0 1 4.599-6.942 21.285 21.285 0 0 1 6.79-4.656 20.796 20.796 0 0 1 8.262-1.7c2.938-.009 5.848.57 8.56 1.7a21.512 21.512 0 0 1 6.942 4.656 21.51 21.51 0 0 1 4.656 6.942 22.055 22.055 0 0 1 1.7 8.559 20.8 20.8 0 0 1-1.7 8.263 21.286 21.286 0 0 1-4.656 6.79 21.745 21.745 0 0 1-6.942 4.6 22.194 22.194 0 0 1-8.56 1.693zm-7.164-30.838-2.878 2.878 7.834 6.737-7.69 6.714 2.878 2.879 7.317-7.44 8.317 7.153 1.425-1.426-7.686-7.815 7.83-7.963-1.715-1.426-8.257 7.211-7.377-7.502h.002zm25.937-7.267a1.15 1.15 0 0 1-1.04-.662 1.136 1.136 0 0 1-.037-.874 1.14 1.14 0 0 1 .592-.647l3.263-1.521a1.153 1.153 0 0 1 1.523.554c.129.275.142.59.037.875a1.138 1.138 0 0 1-.592.646l-3.264 1.522c-.15.071-.315.108-.481.108zm-3.104-2.845c-.304 0-.596-.12-.81-.336a1.135 1.135 0 0 1-.336-.81c-.001-.304.12-.596.336-.81l2.545-2.545c.214-.216.506-.337.81-.337.305 0 .596.12.81.337.216.214.337.506.336.81 0 .303-.12.594-.335.809L45.56 7.586a1.136 1.136 0 0 1-.809.336zM41.63 5.77a1.14 1.14 0 0 1-.992-.574 1.14 1.14 0 0 1-.115-.87L41.455.85a1.147 1.147 0 0 1 1.401-.81c.294.078.545.27.696.535.153.262.194.575.114.868l-.93 3.477c-.134.501-.587.85-1.106.851z" fill="#FF3F3F"/>
            <path d="M15.92 57.71c0 1.264 6.007 2.29 13.417 2.29s13.418-1.026 13.418-2.29c0-1.266-6.007-2.292-13.418-2.292-7.41 0-13.418 1.025-13.418 2.291z" fill="#EEE"/>
        </g>
    </g>
</svg>
