<svg width="16" height="16" viewBox="0 0 16 16" xmlns="http://www.w3.org/2000/svg">
    <g fill="none" fill-rule="evenodd">
        <path d="M0 0h16v16H0z"/>
        <path d="M8 .4c-2.043 0-3.958.81-5.374 2.226A7.577 7.577 0 0 0 .4 8c0 2.043.81 3.958 2.226 5.374A7.577 7.577 0 0 0 8 15.6c2.043 0 3.958-.81 5.374-2.226A7.577 7.577 0 0 0 15.6 8c0-2.043-.81-3.958-2.226-5.374A7.577 7.577 0 0 0 8 .4zm0 1.2c1.721 0 3.333.682 4.525 1.875A6.377 6.377 0 0 1 14.4 8a6.377 6.377 0 0 1-1.875 4.525A6.377 6.377 0 0 1 8 14.4a6.377 6.377 0 0 1-4.525-1.875A6.377 6.377 0 0 1 1.6 8c0-1.721.682-3.333 1.875-4.525A6.377 6.377 0 0 1 8 1.6z" fill="#6D6D6D" fill-rule="nonzero"/>
        <path stroke="#6D6D6D" stroke-width="1.2" stroke-linecap="round" stroke-linejoin="round" d="m5.2 8 2.1 2.1 4.2-4.2"/>
    </g>
</svg>
