<svg width="24" height="24" viewBox="0 0 24 24" xmlns="http://www.w3.org/2000/svg">
    <g fill="none" fill-rule="evenodd">
        <path d="M0 0h24v24H0z"/>
        <g fill-rule="nonzero">
            <path d="m19.378 5.34-5.35-3.147a4 4 0 0 0-4.056 0L4.622 5.34A4 4 0 0 0 2.65 8.788v6.424a4 4 0 0 0 1.972 3.448l5.35 3.147a4 4 0 0 0 4.056 0l5.35-3.147a4 4 0 0 0 1.972-3.448V8.788a4 4 0 0 0-1.972-3.448z" fill="#58C112"/>
            <path d="M15.469 8.65a1 1 0 0 1 1.06 1.697l-4.001 2.501a1 1 0 0 1-1.06 0L7.47 10.346a1 1 0 1 1 1.06-1.695l3.467 2.169 3.47-2.17z" fill="#FFF"/>
            <path d="M12.001 11a1 1 0 0 1 1 1v4.5a1 1 0 0 1-2 0V12a1 1 0 0 1 1-1z" fill="#FFF"/>
        </g>
    </g>
</svg>
