<svg width="24" height="24" viewBox="0 0 24 24" xmlns="http://www.w3.org/2000/svg">
    <g fill="none" fill-rule="evenodd">
        <path d="M0-.001h24v24H0z"/>
        <g fill-rule="nonzero">
            <path d="M4.575 3.699c.362-.443.904-.7 1.476-.699h11.898c.57 0 1.113.258 1.476.699l2.994 3.672a1.902 1.902 0 0 1-.024 2.436l-8.946 10.521a1.905 1.905 0 0 1-2.901 0L1.605 9.81a1.905 1.905 0 0 1-.024-2.436l2.994-3.672v-.003z" fill="#F3B947"/>
            <path d="M16.638 9.453a.951.951 0 0 1 .114 1.341l-2.52 2.985a2.856 2.856 0 0 1-4.326.045l-2.65-3.015a.951.951 0 1 1 1.429-1.257l2.652 3.015a.951.951 0 0 0 1.44-.015l2.52-2.985a.951.951 0 0 1 1.34-.114z" fill="#FDF8FC"/>
        </g>
    </g>
</svg>
