<svg width="16" height="16" viewBox="0 0 16 16" xmlns="http://www.w3.org/2000/svg">
    <g fill="none" fill-rule="evenodd">
        <path d="M0 0h16v16H0z"/>
        <path d="M3.865 4.72c.525 0 .951-.522.951-1.169V2.24c0-.644-.424-1.169-.95-1.169-.525 0-.952.523-.952 1.17V3.55c.002.647.427 1.17.951 1.17zm5.938 5.955c.981-.98 2.594-.975 3.586-.013.04-.011 1.264-1.083 1.264-1.083l-.004-5.114a2.005 2.005 0 0 0-2.002-2h-.058v1.24a1.6 1.6 0 1 1-3.201 0V2.466H5.512V3.7a1.603 1.603 0 1 1-3.207 0V2.467H2.2a2 2 0 0 0-2 2v8.46a2 2 0 0 0 2 2h8.4l-.652-.718c-.995-.99-1.135-2.541-.145-3.534zm1.188-5.954c.524 0 .951-.523.951-1.17V2.24c0-.644-.46-1.169-.987-1.169-.524 0-.915.523-.913 1.17V3.55c0 .647.425 1.17.949 1.17zm3.071 7.206-.744.746-.7-.772c-.456-.457-1.125-.525-1.497-.154-.37.372-.303 1.043.154 1.498l1.263 1.265c.034.034.071.067.109.098a.978.978 0 0 0 .071.082c.254.254.577.303.946.162a1.356 1.356 0 0 0 .481-.316l1.263-1.265c.455-.455.525-1.126.152-1.498-.37-.372-1.04-.303-1.498.154z" fill="#0687FF" fill-rule="nonzero"/>
    </g>
</svg>
