<svg width="16" height="16" viewBox="0 0 16 16" xmlns="http://www.w3.org/2000/svg">
    <g fill="none" fill-rule="evenodd">
        <path d="M0 0h16v16H0z"/>
        <path d="M1.87 7.09A6.234 6.234 0 0 1 7.144 1.82V.865a.891.891 0 0 1 1.781 0v.958a6.234 6.234 0 0 1 5.261 5.266h.95a.891.891 0 0 1 0 1.782h-.946a6.234 6.234 0 0 1-5.265 5.296v.915a.891.891 0 1 1-1.781 0v-.913a6.234 6.234 0 0 1-5.276-5.298h-.95a.891.891 0 1 1 0-1.782h.954zm6.161 4.891a4.003 4.003 0 1 0 0-8.005 4.003 4.003 0 0 0 0 8.005zm0-.89a3.113 3.113 0 1 1 0-6.226 3.113 3.113 0 0 1 0 6.225z" fill="#58C112" fill-rule="nonzero"/>
    </g>
</svg>
