<svg width="16" height="16" viewBox="0 0 16 16" xmlns="http://www.w3.org/2000/svg">
    <g fill="none" fill-rule="evenodd">
        <path d="M0 0h16v16H0z"/>
        <path d="M4.945.7H2.866C1.395.7.343 2.088.813 3.479c1.025 3.04 2.405 5.733 4.19 7.518 1.785 1.785 4.478 3.165 7.518 4.19 1.391.47 2.779-.582 2.779-2.053v-2.08c0-.515-.28-.99-.73-1.24l-1.81-1.007-.14-.068a1.42 1.42 0 0 0-1.186.04L9.7 9.644l-.235-.076a5.12 5.12 0 0 1-1.382-.733 4.584 4.584 0 0 1-.924-.925c-.299-.4-.525-.83-.688-1.26l-.082-.232-.039-.125.867-1.734a1.42 1.42 0 0 0-.028-1.324L6.186 1.431A1.42 1.42 0 0 0 4.945.7zm0 1.2a.22.22 0 0 1 .192.113l1.002 1.806a.22.22 0 0 1 .005.205l-.966 1.931a.6.6 0 0 0-.052.383c.115.593.436 1.44 1.072 2.291a5.794 5.794 0 0 0 1.165 1.167c.852.639 1.701.96 2.295 1.074a.6.6 0 0 0 .382-.053l1.931-.965a.22.22 0 0 1 .205.004l1.811 1.007a.22.22 0 0 1 .113.192v2.079c0 .666-.597 1.118-1.195.916-2.88-.971-5.429-2.277-7.053-3.902-1.625-1.624-2.93-4.173-3.902-7.053-.202-.598.25-1.195.916-1.195h2.079z" fill="#060606" fill-rule="nonzero"/>
    </g>
</svg>
