<svg width="16" height="16" viewBox="0 0 16 16" xmlns="http://www.w3.org/2000/svg">
    <g fill="none" fill-rule="evenodd">
        <path d="M0 0h16v16H0z"/>
        <g fill="#FF7206" fill-rule="nonzero">
            <path d="M9.068 1.167a5.19 5.19 0 0 1 2.027.099 5.144 5.144 0 0 1 2.392 1.357 5.144 5.144 0 0 1 1.357 2.393c.166.662.2 1.351.1 2.026a.6.6 0 1 1-1.188-.177 3.99 3.99 0 0 0-.075-1.558 3.944 3.944 0 0 0-1.043-1.835 3.945 3.945 0 0 0-1.835-1.042 3.99 3.99 0 0 0-1.558-.076.6.6 0 1 1-.177-1.187z"/>
            <path d="M9.199 3.681a2.704 2.704 0 0 1 2.315.763c.614.615.889 1.473.763 2.316a.6.6 0 0 1-1.193-.096l.006-.081c.07-.47-.082-.948-.425-1.29a1.504 1.504 0 0 0-1.29-.425A.6.6 0 1 1 9.2 3.68zM4.724 2.204H2.942C1.624 2.204.68 3.45 1.101 4.7c.883 2.617 2.07 4.936 3.612 6.477 1.542 1.542 3.86 2.73 6.478 3.613 1.248.421 2.495-.523 2.495-1.842v-1.782c0-.473-.257-.908-.67-1.138l-1.552-.863-.115-.057a1.303 1.303 0 0 0-1.1.03l-1.458.728-.073-.023a4.416 4.416 0 0 1-1.253-.647 3.843 3.843 0 0 1-.775-.776 4.339 4.339 0 0 1-.578-1.059l-.068-.194-.024-.074.728-1.455a1.303 1.303 0 0 0-.026-1.215l-.86-1.547a1.302 1.302 0 0 0-1.138-.67z"/>
        </g>
    </g>
</svg>
