<svg width="32" height="32" viewBox="0 0 32 32" xmlns="http://www.w3.org/2000/svg">
    <g fill="none" fill-rule="evenodd">
        <path d="M0 0h32v32H0z"/>
        <path d="M10.528 3H6.805C4.22 3 2.375 5.436 3.198 7.878c1.834 5.435 4.3 10.249 7.487 13.437 3.188 3.187 8.002 5.653 13.437 7.487C26.564 29.626 29 27.78 29 25.195V21.47c0-.896-.485-1.722-1.268-2.157l-3.244-1.803-.167-.085a2.468 2.468 0 0 0-2.136.034l-3.13 1.566-.078-.022-.275-.088a9.244 9.244 0 0 1-2.598-1.36 8.284 8.284 0 0 1-1.67-1.672 9.317 9.317 0 0 1-1.242-2.275l-.062-.166a8.473 8.473 0 0 1-.142-.43l-.023-.076 1.566-3.131a2.468 2.468 0 0 0-.05-2.302L12.687 4.27A2.468 2.468 0 0 0 10.528 3zm0 2c.17 0 .327.092.41.24l1.795 3.235a.468.468 0 0 1 .01.436l-1.73 3.46a1 1 0 0 0-.087.638c.204 1.052.775 2.56 1.906 4.073a10.303 10.303 0 0 0 2.072 2.075c1.516 1.136 3.027 1.707 4.08 1.91a1 1 0 0 0 .636-.088l3.46-1.73a.468.468 0 0 1 .436.01l3.244 1.803c.148.082.24.24.24.409v3.724c0 1.242-1.118 2.09-2.238 1.712-5.168-1.744-9.743-4.087-12.662-7.007-2.92-2.92-5.263-7.494-7.007-12.662C4.715 6.118 5.563 5 6.805 5h3.723z" fill="#060606" fill-rule="nonzero"/>
    </g>
</svg>
