<svg width="32" height="32" viewBox="0 0 32 32" xmlns="http://www.w3.org/2000/svg">
    <g fill="none" fill-rule="evenodd">
        <path d="M0 0h32v32H0z"/>
        <g fill="#060606" fill-rule="nonzero">
            <path d="M18.772 3H8.4a3 3 0 0 0-3 3v20a3 3 0 0 0 3 3h15.2a3 3 0 0 0 3-3V10.828a3 3 0 0 0-.879-2.12l-4.828-4.83A3 3 0 0 0 18.772 3zm0 2a1 1 0 0 1 .707.293l4.828 4.828a1 1 0 0 1 .293.707V26a1 1 0 0 1-1 1H8.4a1 1 0 0 1-1-1V6a1 1 0 0 1 1-1h10.372z"/>
            <path d="M19.6 3.5a1 1 0 0 1 1 1V8a1 1 0 0 0 1 1h3.5a1 1 0 0 1 0 2h-3.5a3 3 0 0 1-3-3V4.5a1 1 0 0 1 1-1z"/>
        </g>
    </g>
</svg>
