<svg width="32" height="32" viewBox="0 0 32 32" xmlns="http://www.w3.org/2000/svg">
    <g fill="none" fill-rule="evenodd">
        <path d="M0 0h32v32H0z"/>
        <path d="M11.064 3.386A13.195 13.195 0 0 0 3.1 15.502c0 7.287 5.907 13.194 13.193 13.194a13.198 13.198 0 0 0 12.559-9.14c.264-.818-.56-1.566-1.349-1.225-1.387.6-2.889.913-4.436.913-6.182 0-11.193-5.011-11.193-11.193 0-1.182.183-2.339.538-3.44.264-.818-.56-1.566-1.348-1.225zm-1.068 2.86-.05.424c-.048.457-.072.917-.072 1.381 0 7.286 5.907 13.193 13.193 13.193l.42-.006c.836-.027 1.661-.131 2.466-.31l.154-.038-.122.218a11.2 11.2 0 0 1-9.692 5.588c-6.182 0-11.193-5.012-11.193-11.194 0-3.688 1.8-7.046 4.683-9.108l.213-.149z" fill="#060606" fill-rule="nonzero"/>
    </g>
</svg>
