<svg width="20" height="20" viewBox="0 0 20 20" xmlns="http://www.w3.org/2000/svg">
    <g fill="none" fill-rule="evenodd">
        <path d="M0 0h20v20H0z"/>
        <path d="m10.709 1.207 1.503 1.504a1 1 0 0 0 .707.292h3.078a1 1 0 0 1 1 1v3.078a1 1 0 0 0 .292.707l1.504 1.503c.39.391.39 1.024 0 1.415l-1.504 1.506a1 1 0 0 0-.292.707v3.078a1 1 0 0 1-1 1h-3.078a1 1 0 0 0-.707.292l-1.503 1.504c-.391.39-1.024.39-1.415 0L7.788 17.29a1 1 0 0 0-.707-.292H4.003a1 1 0 0 1-1-1v-3.078a1 1 0 0 0-.292-.707l-1.504-1.506a1.002 1.002 0 0 1 0-1.415l1.504-1.503a1 1 0 0 0 .292-.707V4.003a1 1 0 0 1 1-1h3.078a1 1 0 0 0 .707-.292l1.506-1.504a1.002 1.002 0 0 1 1.415 0z" fill="#060606"/>
        <path d="M13.27 6.936a.75.75 0 0 1 1.06 1.061l-5.066 5.067a.75.75 0 0 1-1.061 0L5.67 10.53a.75.75 0 0 1 1.06-1.06l2.003 2.003 4.537-4.537z" fill="#A8F574" fill-rule="nonzero"/>
    </g>
</svg>
