<svg width="40" height="40" viewBox="0 0 40 40" xmlns="http://www.w3.org/2000/svg">
    <g fill="none" fill-rule="evenodd">
        <path d="M0 0h40v40H0z"/>
        <g fill="#060606" fill-rule="nonzero">
            <path d="m16.09 2.79-1.386 1.385A3.5 3.5 0 0 1 12.229 5.2H10.5a5.3 5.3 0 0 0-5.3 5.3v1.729a3.5 3.5 0 0 1-1.025 2.475l-1.386 1.385a5.53 5.53 0 0 0 0 7.822l1.386 1.385A3.5 3.5 0 0 1 5.2 27.771V29.5a5.3 5.3 0 0 0 5.3 5.3h1.729a3.5 3.5 0 0 1 2.475 1.025l1.385 1.386a5.53 5.53 0 0 0 7.822 0l1.385-1.386a3.5 3.5 0 0 1 2.475-1.025H29.5a5.3 5.3 0 0 0 5.3-5.3v-1.729a3.5 3.5 0 0 1 1.025-2.475l1.386-1.385a5.53 5.53 0 0 0 0-7.822l-1.386-1.385a3.5 3.5 0 0 1-1.025-2.475V10.5a5.3 5.3 0 0 0-5.3-5.3h-1.729a3.5 3.5 0 0 1-2.475-1.025l-1.385-1.386a5.53 5.53 0 0 0-7.822 0zm5.7 2.12 1.385 1.386A6.5 6.5 0 0 0 27.77 8.2H29.5a2.3 2.3 0 0 1 2.3 2.3v1.729a6.5 6.5 0 0 0 1.904 4.596l1.385 1.386a2.53 2.53 0 0 1 0 3.578l-1.385 1.386A6.5 6.5 0 0 0 31.8 27.77V29.5a2.3 2.3 0 0 1-2.3 2.3h-1.729a6.5 6.5 0 0 0-4.596 1.904l-1.386 1.385a2.53 2.53 0 0 1-3.578 0l-1.386-1.385A6.5 6.5 0 0 0 12.23 31.8H10.5a2.3 2.3 0 0 1-2.3-2.3v-1.729a6.5 6.5 0 0 0-1.904-4.596l-1.385-1.386a2.53 2.53 0 0 1 0-3.578l1.385-1.386A6.5 6.5 0 0 0 8.2 12.23V10.5a2.3 2.3 0 0 1 2.3-2.3h1.729a6.5 6.5 0 0 0 4.596-1.904l1.386-1.385a2.53 2.53 0 0 1 3.578 0z"/>
            <path d="M25.174 14.783a1.5 1.5 0 0 1 2.121 2.121l-8.312 8.313a1.5 1.5 0 0 1-2.122 0l-4.156-4.156a1.5 1.5 0 0 1 2.121-2.122l3.096 3.096 7.252-7.252z"/>
        </g>
    </g>
</svg>
