<svg width="40" height="40" viewBox="0 0 40 40" xmlns="http://www.w3.org/2000/svg">
    <g fill="none" fill-rule="evenodd">
        <path d="M0 0h40v40H0z"/>
        <g fill="#333" fill-rule="nonzero">
            <path d="M23.429 2.5H16.57C13.18 2.5 10.5 5.49 10.5 9.1v1.7a1.5 1.5 0 0 0 1.5 1.5h16a1.5 1.5 0 0 0 1.5-1.5V9.1c0-3.61-2.68-6.6-6.071-6.6zm0 3 .164.005c1.586.1 2.907 1.64 2.907 3.595v.2h-13v-.2c0-2.023 1.414-3.6 3.071-3.6h6.858zM1.7 19v12a6.5 6.5 0 0 0 6.5 6.5h23.6a6.5 6.5 0 0 0 6.5-6.5V19l-.005-.13a1.5 1.5 0 0 0-1.929-1.306L20 22.507 3.634 17.564A1.5 1.5 0 0 0 1.7 19zm33.6 2.019V31a3.5 3.5 0 0 1-3.5 3.5H8.2l-.192-.005A3.5 3.5 0 0 1 4.7 31v-9.981l14.866 4.492a1.5 1.5 0 0 0 .868 0L35.3 21.019z"/>
            <path d="M31.8 9.3a6.5 6.5 0 0 1 6.5 6.5v4.4a1.5 1.5 0 0 1-3 0v-4.4a3.5 3.5 0 0 0-3.5-3.5H8.2a3.5 3.5 0 0 0-3.5 3.5v4.4a1.5 1.5 0 0 1-3 0v-4.4a6.5 6.5 0 0 1 6.5-6.5h23.6z"/>
            <path d="M22.125 16.75a2.125 2.125 0 1 1-4.25 0 2.125 2.125 0 0 1 4.25 0z"/>
        </g>
    </g>
</svg>
