<svg width="40" height="40" viewBox="0 0 40 40" xmlns="http://www.w3.org/2000/svg">
    <g fill="none" fill-rule="evenodd">
        <path d="M0 0h40v40H0z"/>
        <g fill="#060606" fill-rule="nonzero">
            <path d="m9.822 9.955.602.804c1.108 1.501 1.382 1.998 1.425 2.515l.003.09c-.003.305-.156.633-.57 1.078l-.118.12-.059.058c-1.926 2.01-1.239 5.532 3.75 10.302 3.785 3.64 6.698 4.55 8.725 3.46.284-.152.503-.323.665-.49l.09-.1c.783-.908 2.06-.577 4.623 1.345 1.67 1.239 1.944 2.062 1.244 3.375a6.197 6.197 0 0 1-.241.387c-.463.683-.885 1.042-1.087 1.15-1.5.869-3.92.563-6.53-.776l-1.832-1.019c-2.144-1.177-5.322-3.96-8.331-6.95l-.496-.499C6.091 19 2.715 12.035 5.583 9.418l.159-.135c1.676-1.412 2.588-1.254 4.08.672zm3.419 6.772.03-.027c1.145-1.145 1.677-2.358 1.568-3.676-.114-1.365-.51-2.052-2.277-4.417l-.194-.26C9.892 5.045 7.116 4.335 4.012 6.82l-.181.15c-3.005 2.436-2.96 6.286-.8 10.8 1.428 2.985 3.795 6.233 6.132 8.734l.429.45.471.473.745.733c2.981 2.906 5.968 5.465 8.254 6.72l1.869 1.038c3.361 1.724 6.67 2.184 9.164.882l.238-.132c.563-.299 1.358-.973 2.113-2.09.134-.198.263-.406.386-.623 1.442-2.704.73-5.037-1.854-7.051l-.466-.35c-3.497-2.566-6.145-3.226-8.313-.874l-.062.069.022-.01c-.158.085-.465.11-1.04-.07-1.06-.331-2.456-1.25-4.187-2.913-2.356-2.253-3.487-3.992-3.727-5.218l-.026-.15c-.056-.373-.012-.556.042-.636l.02-.026z"/>
            <path d="M24.42 18.773h-4.851v-.949l2.24-2.532c.333-.394.571-.728.712-1 .14-.274.21-.525.21-.753 0-.298-.074-.536-.223-.715-.149-.179-.372-.268-.67-.268-.315 0-.558.114-.73.342-.172.229-.258.519-.258.87h-1.41l-.01-.03c-.017-.643.195-1.186.635-1.632.44-.445 1.031-.667 1.773-.667.741 0 1.317.19 1.728.568.41.38.616.888.616 1.527 0 .434-.115.83-.345 1.187-.23.357-.627.852-1.19 1.485l-1.191 1.43.01.025h2.954v1.112zM29.564 16.081h.815v1.123h-.815v1.569h-1.45v-1.57H25.17l-.07-.868 3-4.792h1.464v4.538zm-3.148 0h1.698v-2.626l-.03-.005-.148.322-1.52 2.31z"/>
            <path d="M18.982 2.642a16.738 16.738 0 0 1 6.682.45 16.855 16.855 0 0 1 7.802 4.72 17.418 17.418 0 0 1 4.32 8.125c.506 2.234.575 4.552.205 6.814a1.5 1.5 0 0 1-2.96-.483c.307-1.882.25-3.811-.17-5.669a14.419 14.419 0 0 0-3.578-6.73 13.855 13.855 0 0 0-6.416-3.884 13.738 13.738 0 0 0-5.484-.37 1.5 1.5 0 1 1-.401-2.973z"/>
        </g>
    </g>
</svg>
