<svg width="40" height="40" viewBox="0 0 40 40" xmlns="http://www.w3.org/2000/svg">
    <g fill="none" fill-rule="evenodd">
        <path d="M0 0h40v40H0z"/>
        <g transform="translate(1.854 2.5)" fill="#060606">
            <path d="M17.5-1.5c10.493 0 19 8.507 19 19 0 2.527-.494 4.987-1.442 7.273a1.5 1.5 0 1 1-2.771-1.15A15.947 15.947 0 0 0 33.5 17.5c0-8.837-7.163-16-16-16s-16 7.163-16 16 7.163 16 16 16a1.5 1.5 0 0 1 0 3c-10.493 0-19-8.507-19-19s8.507-19 19-19z" fill-rule="nonzero"/>
            <circle cx="33.292" cy="24.429" r="3"/>
            <path d="M21.52 23.26h-2.55l-1.006-2.629h-4.562l-.928 2.63H10l4.407-11.521h2.474l4.64 11.52zm-4.33-4.562-1.546-4.252-1.546 4.252h3.093zm5.49 4.562V11.74H25v11.443h-2.32v.077z" fill-rule="nonzero"/>
        </g>
    </g>
</svg>
