<svg width="40" height="40" viewBox="0 0 40 40" xmlns="http://www.w3.org/2000/svg">
    <g fill="none" fill-rule="evenodd">
        <path d="M0 0h40v40H0z"/>
        <path d="M34.675 12.533c-1.345 0-2.433 1.107-2.433 2.473v9.659c0 1.363 1.088 2.473 2.433 2.473 1.343 0 2.433-1.105 2.433-2.473v-9.659a2.45 2.45 0 0 0-2.433-2.473zm-29.35 0c-1.344 0-2.434 1.107-2.434 2.473v9.659c0 1.363 1.09 2.473 2.434 2.473 1.345 0 2.433-1.105 2.433-2.473v-9.659c0-1.366-1.088-2.473-2.433-2.473zm3.9.075v17.647a1.9 1.9 0 0 0 1.897 1.898h2.166v5.375c0 1.362 1.092 2.472 2.434 2.472 1.345 0 2.433-1.105 2.433-2.472V32.15h3.79v5.373c0 1.364 1.09 2.474 2.433 2.474 1.344 0 2.434-1.107 2.434-2.474V32.15h2.166a1.9 1.9 0 0 0 1.9-1.9V12.61H9.223l.002-.002zm15.907-9.143 2-2.902c.116-.173.09-.4-.067-.508C26.91-.05 26.687 0 26.57.17l-2.078 3.02A12.25 12.25 0 0 0 20 2.35c-1.6 0-3.125.3-4.492.84L13.43.175c-.117-.172-.34-.225-.495-.117-.157.107-.183.333-.067.508l2 2.902c-3.18 1.48-5.41 4.288-5.695 7.57h21.654c-.284-3.285-2.515-6.093-5.695-7.573zM15.433 8.04a1.2 1.2 0 1 1 0-2.398 1.2 1.2 0 1 1 0 2.4v-.002zm9.285 0a1.2 1.2 0 1 1 0-2.398 1.2 1.2 0 0 1 0 2.4v-.002z" fill="#060606" fill-rule="nonzero"/>
    </g>
</svg>
