<svg width="40" height="40" viewBox="0 0 40 40" xmlns="http://www.w3.org/2000/svg">
    <g fill="none" fill-rule="evenodd">
        <path d="M0 0h40v40H0z"/>
        <g fill="#060606">
            <path d="M20.087 9.197c.081-2.205.7-4.141 1.844-5.76C23.08 1.81 24.979.655 27.579 0l.054.24v.419c0 .95-.23 2.039-.685 3.237-.477 1.16-1.222 2.251-2.21 3.236-.926.868-1.782 1.443-2.538 1.703-.25.075-.592.148-1.006.214-.368.057-.737.107-1.107.148z" fill-rule="nonzero"/>
            <path d="M20.521 12.468c-2.936 0-4.975-2.597-7.872-2.597-2.897 0-8.864 2.662-8.864 11.854s5.3 15.114 5.892 15.806C10.27 38.222 11.64 40 13.764 40c2.124 0 4.449-1.688 6.757-1.688 2.309 0 5.215 1.688 7.112 1.688 1.897 0 2.677-.773 3.968-2.107s3.754-5.405 4.614-7.848c-1.417-.843-5.171-3.132-5.171-8.32 0-3.458 1.264-6.331 3.791-8.619-1.658-2.157-3.581-3.235-5.77-3.235-3.282 0-5.607 2.597-8.544 2.597z"/>
        </g>
    </g>
</svg>
