<svg width="16" height="16" viewBox="0 0 16 16" xmlns="http://www.w3.org/2000/svg">
    <g fill="none" fill-rule="evenodd">
        <path d="M0 0h16v16H0z"/>
        <g fill="#060606" fill-rule="nonzero">
            <path d="M13 .4A2.6 2.6 0 0 1 15.6 3v7.993a1.66 1.66 0 0 1-1.66 1.66.6.6 0 0 1-.097-1.193l.097-.007a.46.46 0 0 0 .46-.46V3A1.4 1.4 0 0 0 13 1.6H5.187a.64.64 0 0 0-.633.545l-.007.095a.6.6 0 1 1-1.2 0A1.84 1.84 0 0 1 5.187.4H13z"/>
            <path d="M10.243 3.347H3a2.6 2.6 0 0 0-2.6 2.6V13A2.6 2.6 0 0 0 3 15.6h7.243a2.6 2.6 0 0 0 2.6-2.6V5.947a2.6 2.6 0 0 0-2.6-2.6zm0 1.2a1.4 1.4 0 0 1 1.4 1.4V13a1.4 1.4 0 0 1-1.4 1.4H3A1.4 1.4 0 0 1 1.6 13V5.947a1.4 1.4 0 0 1 1.4-1.4h7.243z"/>
        </g>
    </g>
</svg>
