<svg width="45" height="45" viewBox="0 0 45 45" xmlns="http://www.w3.org/2000/svg">
    <path d="M6.5 13a6.5 6.5 0 1 0 0-13 6.5 6.5 0 0 0 0 13zm16 0a6.5 6.5 0 1 0 0-13 6.5 6.5 0 0 0 0 13zm16 0a6.5 6.5 0 1 0 0-13 6.5 6.5 0 0 0 0 13zm-32 16a6.5 6.5 0 1 0 0-13 6.5 6.5 0 0 0 0 13zm16 0a6.5 6.5 0 1 0 0-13 6.5 6.5 0 0 0 0 13zm16 0a6.5 6.5 0 1 0 0-13 6.5 6.5 0 0 0 0 13zm-32 16a6.5 6.5 0 1 0 0-13 6.5 6.5 0 0 0 0 13zm16 0a6.5 6.5 0 1 0 0-13 6.5 6.5 0 0 0 0 13zm16 0a6.5 6.5 0 1 0 0-13 6.5 6.5 0 0 0 0 13z" fill="#007AFF" fill-rule="evenodd"/>
</svg>
