<svg width="40" height="40" viewBox="0 0 40 40" xmlns="http://www.w3.org/2000/svg">
    <g fill="none" fill-rule="evenodd">
        <path d="M0 0h40v40H0z"/>
        <g fill-rule="nonzero">
            <path d="m25.632 17.724-1.473 8.633c-.304 1.555-1.328 1.973-2.237 1.973H15.11l2.873-15.812c-2.865-1.311-5.795-2.166-8.124-2.166-2.218 0-4.018.6-5.217 2.033-.845 1.022-1.267 2.284-1.267 3.78 0 4.496 3.539 10.732 9.6 15.82C18.376 36.481 24.32 39 28.643 39c2.157 0 3.896-.661 5.042-1.976.898-1.018 1.26-2.34 1.26-3.838 0-4.37-3.566-10.492-9.312-15.462z" fill="#F96449"/>
            <path d="M13.398 1c-1.08 0-1.979.726-2.218 1.862l-.96 5.21h8.566l-3.68 20.254h6.816c.91 0 1.933-.422 2.237-1.972l3.117-18.282h6.164c1.085 0 1.983-.718 2.222-1.858L36.625 1H13.398z" fill="#0D54FF"/>
        </g>
    </g>
</svg>
