<?xml version="1.0" encoding="UTF-8" standalone="no"?>
<!-- Filename: e1d5a2685c807539e52030f48645034b774c0e67fd459b62f1a94004d6155508.svg -->
<!-- Created with https://svgstud.io -->
<svg
  version="1.1"
  xmlns="http://www.w3.org/2000/svg"
  xmlns:xlink="http://www.w3.org/1999/xlink"
  xmlns:svg="http://www.w3.org/2000/svg"
  xmlns:rdf="http://www.w3.org/1999/02/22-rdf-syntax-ns#"
  xmlns:cc="http://creativecommons.org/ns#"
  xmlns:dc="http://purl.org/dc/elements/1.1/"
  viewBox="0 0 1024 1024"
  width="1024"
  height="1024"
  role="img"
  aria-labelledby="titleID descID"
>
  <title id="titleID">elon musk</title>
  <desc id="descID">AI-generated SVG illustration: elon musk, created on https://svgstud.io</desc>

  <rect width="100%" height="100%" fill="white" />

  <image
    href="https://svgstud.io/pngs/e1d5a2685c807539e52030f48645034b774c0e67fd459b62f1a94004d6155508.png"
    x="0" y="0"
    width="1024" height="1024"
    preserveAspectRatio="xMidYMid meet"
    opacity="0"
  />

  <metadata>
    Created by https://svgstud.io and licensed under CC-BY-SA 4.0 license. Please attribute https://svgstud.io
  </metadata>
  <metadata>
    elon musk
  </metadata>
  <metadata>
    7
  </metadata>
  <metadata>
    <rdf:RDF
      xmlns:rdf="http://www.w3.org/1999/02/22-rdf-syntax-ns#"
      xmlns:cc="http://creativecommons.org/ns#"
      xmlns:dc="http://purl.org/dc/elements/1.1/"
    >
      <cc:Work rdf:about="">
        <cc:license rdf:resource="http://creativecommons.org/licenses/by-sa/4.0/" />
        <dc:creator>
          <cc:Agent>
            <dc:title>https://svgstud.io</dc:title>
          </cc:Agent>
        </dc:creator>
      </cc:Work>
      <cc:License rdf:about="http://creativecommons.org/licenses/by-sa/4.0/">
        <cc:permits rdf:resource="http://creativecommons.org/ns#Reproduction" />
        <cc:permits rdf:resource="http://creativecommons.org/ns#Distribution" />
        <cc:requires rdf:resource="http://creativecommons.org/ns#Notice" />
        <cc:requires rdf:resource="http://creativecommons.org/ns#Attribution" />
        <cc:permits rdf:resource="http://creativecommons.org/ns#DerivativeWorks" />
        <cc:requires rdf:resource="http://creativecommons.org/ns#ShareAlike" />
      </cc:License>
    </rdf:RDF>
  </metadata>
  <metadata id="uid">e1d5a2685c807539e52030f48645034b774c0e67fd459b62f1a94004d6155508</metadata>

  <path stroke="none" fill="black" fill-rule="evenodd" d="M488.08,942.00C472.92,942.00 472.92,942.00 470.21,937.50C468.72,935.02 463.45,926.48 458.50,918.50C453.55,910.53 444.10,896.09 437.50,886.41C430.90,876.73 419.25,859.74 411.60,848.65C403.96,837.57 394.69,823.77 391.01,818.00C387.33,812.23 376.76,796.02 367.51,782.00C358.27,767.98 347.59,752.23 343.78,747.00C339.97,741.77 334.79,735.65 332.27,733.39C329.76,731.14 327.98,728.84 328.31,728.30C328.65,727.76 332.65,725.15 337.21,722.50C341.77,719.85 349.14,715.29 353.59,712.36C358.04,709.43 362.99,705.79 364.59,704.26C367.50,701.50 367.50,701.50 364.62,701.17C362.50,700.93 359.12,702.46 351.62,707.07C346.06,710.50 336.44,716.26 330.25,719.88C324.06,723.50 319.00,726.79 319.00,727.19C319.00,727.59 323.51,734.25 329.03,742.00C334.55,749.74 338.76,756.58 338.38,757.20C337.93,757.92 338.15,758.02 339.02,757.49C339.96,756.91 340.17,757.12 339.74,758.24C339.41,759.10 339.81,760.64 340.62,761.65C342.01,763.38 342.04,763.35 341.02,761.25C340.42,760.01 340.14,759.00 340.41,759.00C340.67,759.00 343.80,763.27 347.37,768.50C350.94,773.73 353.67,778.00 353.44,778.00C353.21,778.00 350.73,774.85 347.93,771.00C345.13,767.15 342.62,764.00 342.36,764.00C342.10,764.00 342.23,764.56 342.64,765.25C343.06,765.94 345.96,770.60 349.07,775.60C352.19,780.61 359.84,791.86 366.07,800.60C372.30,809.35 381.28,821.67 386.02,828.00C390.77,834.33 402.52,850.52 412.13,864.00C421.75,877.48 434.58,895.70 440.65,904.50C446.72,913.30 452.19,921.44 452.80,922.59C453.89,924.67 453.76,924.69 436.20,925.35C426.47,925.72 410.24,926.44 400.15,926.97C390.06,927.50 367.78,928.23 350.65,928.61C330.90,929.05 310.17,928.87 294.00,928.12C279.98,927.47 244.43,926.77 215.00,926.56C185.57,926.36 152.95,925.69 142.50,925.08C132.05,924.47 117.20,923.27 109.50,922.42C101.80,921.57 90.25,919.81 83.84,918.50C77.42,917.20 68.87,915.15 64.84,913.95C60.80,912.75 55.38,910.70 52.79,909.39C50.19,908.08 47.55,906.02 46.90,904.82C46.26,903.62 45.37,895.63 44.92,887.07C44.48,878.51 43.83,867.00 43.49,861.50C42.88,851.74 42.91,851.55 44.68,853.68C45.68,854.88 51.00,857.64 56.50,859.81C62.00,861.98 67.86,864.05 69.52,864.41C71.40,864.81 73.22,864.56 74.33,863.74C75.98,862.54 75.65,862.08 70.46,858.23C67.34,855.92 60.99,852.16 56.35,849.87C51.71,847.58 47.43,844.81 46.85,843.71C46.11,842.34 45.99,831.86 46.45,810.11C46.97,785.79 47.70,773.77 49.62,758.00C51.00,746.73 52.81,734.17 53.64,730.09C54.47,726.02 56.03,720.32 57.11,717.44C58.19,714.56 60.61,710.17 62.50,707.70C64.39,705.23 68.97,700.93 72.69,698.15C77.57,694.49 83.91,691.29 95.48,686.62C104.29,683.06 119.60,676.81 129.50,672.72C139.40,668.63 155.60,661.81 165.50,657.57C175.40,653.33 193.85,645.66 206.50,640.51C219.15,635.37 236.47,628.25 245.00,624.70C253.53,621.14 267.31,615.27 275.64,611.66C283.96,608.05 291.93,604.80 293.35,604.45C294.77,604.09 297.03,602.70 298.38,601.35C300.83,598.89 300.83,598.89 301.92,604.20C302.52,607.11 304.83,620.52 307.05,634.00C309.27,647.48 311.72,665.02 312.50,672.98C313.49,683.10 314.35,687.78 315.35,688.51C316.14,689.09 322.35,690.59 329.14,691.85C335.94,693.11 344.51,694.78 348.20,695.57C351.88,696.36 356.98,697.00 359.53,697.00C362.79,697.00 364.05,696.63 363.76,695.75C363.54,695.06 362.06,693.87 360.48,693.10C358.91,692.33 351.06,690.15 343.06,688.25C335.05,686.35 326.72,684.28 324.55,683.65C320.59,682.50 320.59,682.50 319.32,673.50C318.62,668.55 316.92,659.10 315.56,652.50C314.19,645.90 312.19,634.42 311.11,627.00C310.04,619.58 308.61,608.71 307.94,602.85C307.28,596.99 307.03,591.03 307.39,589.59C307.75,588.16 311.22,583.96 315.10,580.27C318.98,576.57 326.27,568.14 331.30,561.53C336.32,554.91 343.72,545.60 347.73,540.83C351.74,536.05 356.48,531.25 358.26,530.16C360.04,529.06 364.35,527.34 367.83,526.33C373.49,524.70 374.74,523.82 379.58,518.17C384.53,512.39 385.00,511.42 385.00,506.98C385.00,504.31 385.45,501.84 386.00,501.50C386.60,501.13 387.00,502.45 387.00,504.83C387.00,507.01 387.68,515.25 388.51,523.14C389.35,531.04 390.52,540.33 391.12,543.79C392.07,549.23 392.89,550.81 397.20,555.53C400.25,558.86 406.52,563.67 413.39,567.93C419.55,571.75 427.92,576.48 431.98,578.42C436.04,580.37 439.59,581.75 439.85,581.48C440.11,581.22 438.46,578.87 436.17,576.25C433.88,573.64 428.92,567.45 425.14,562.50C421.36,557.55 415.89,549.23 412.99,544.00C410.08,538.77 404.57,529.40 400.74,523.18C396.91,516.95 392.94,509.57 391.92,506.77C390.90,503.98 389.18,500.75 388.10,499.60C387.02,498.44 385.22,495.37 384.11,492.77C383.00,490.17 381.64,486.34 381.09,484.27C380.54,482.20 379.60,476.50 379.00,471.61C377.96,463.14 377.70,462.47 373.43,457.61C370.97,454.80 366.87,448.45 364.32,443.50C360.86,436.79 357.88,432.72 352.58,427.50C348.67,423.65 343.78,417.57 341.71,414.00C339.63,410.43 336.58,403.00 334.92,397.50C333.27,392.00 330.36,382.49 328.46,376.37C326.14,368.92 325.01,363.31 325.02,359.37C325.03,356.14 325.93,349.47 327.02,344.55C328.11,339.63 330.09,333.95 331.42,331.94C332.76,329.92 334.74,328.04 335.83,327.75C336.92,327.47 339.54,328.01 341.66,328.96C343.77,329.91 346.92,331.89 348.66,333.36C350.39,334.82 355.32,341.53 359.60,348.26C363.88,354.99 367.96,362.16 368.67,364.19C369.80,367.45 369.72,368.41 368.00,372.19C366.75,374.94 366.04,378.72 366.02,382.64C366.00,388.06 366.40,389.34 369.48,393.64C371.39,396.31 373.94,400.52 375.14,403.00C376.35,405.48 377.54,409.64 377.79,412.25C378.25,417.00 378.25,417.00 371.08,417.00C364.54,417.00 363.68,416.76 361.35,414.25C359.95,412.74 358.40,410.75 357.91,409.82C357.10,408.33 357.57,408.20 362.25,408.66C366.22,409.05 367.99,408.77 369.50,407.52C370.73,406.51 371.07,405.69 370.39,405.40C369.77,405.14 365.85,402.70 361.66,399.98C356.98,396.93 352.99,393.42 351.29,390.86C348.87,387.20 348.53,385.74 348.56,379.09C348.59,373.42 349.17,370.24 350.85,366.50C352.09,363.75 354.27,360.29 355.68,358.81C357.22,357.21 358.02,355.49 357.66,354.56C357.33,353.70 355.93,353.00 354.55,353.00C353.05,353.00 351.46,353.90 350.58,355.25C349.78,356.49 347.67,361.10 345.90,365.50C344.12,369.90 342.47,375.81 342.22,378.64C341.97,381.46 342.31,385.39 342.96,387.37C343.70,389.63 346.17,392.70 349.57,395.61C353.78,399.20 355.00,400.88 355.00,403.09C355.00,404.82 354.28,406.31 353.16,406.91C351.66,407.72 350.50,407.05 346.77,403.20C344.26,400.61 341.47,397.03 340.57,395.22C339.34,392.78 338.87,388.71 338.71,379.22C338.54,368.91 338.92,364.78 340.74,357.41C341.97,352.42 343.10,346.25 343.24,343.71C343.38,341.17 343.09,338.96 342.58,338.80C342.08,338.63 341.34,339.62 340.94,341.00C340.54,342.38 339.19,347.32 337.95,352.00C336.70,356.68 335.00,361.85 334.17,363.50C332.67,366.50 332.67,366.50 331.14,363.00C329.91,360.20 329.54,359.90 329.28,361.50C329.10,362.60 329.65,365.98 330.50,369.00C331.35,372.02 332.93,379.19 334.02,384.92C335.36,391.99 337.00,397.13 339.12,400.92C340.84,403.99 344.41,409.43 347.05,413.00C349.69,416.57 353.35,420.94 355.17,422.70C357.00,424.46 360.17,426.60 362.22,427.45C364.26,428.30 367.54,429.00 369.50,429.00C371.46,429.00 374.70,428.31 376.71,427.48C378.78,426.61 380.73,426.33 381.23,426.83C381.71,427.31 382.75,435.53 383.55,445.10C384.35,454.67 385.47,465.97 386.04,470.21C386.62,474.45 387.79,480.30 388.65,483.21C389.51,486.12 390.90,489.85 391.73,491.50C392.57,493.15 394.85,496.47 396.80,498.88C398.75,501.29 403.08,505.27 406.42,507.74C409.77,510.20 416.10,514.03 420.50,516.25C424.90,518.46 431.28,521.32 434.68,522.60C438.08,523.88 444.83,526.03 449.68,527.38C454.53,528.73 462.10,530.54 466.50,531.42C470.90,532.29 478.77,533.64 484.00,534.42C489.52,535.24 499.58,537.92 508.00,540.81C517.76,544.17 525.61,546.18 532.00,546.97C537.92,547.69 547.15,547.90 556.50,547.50C564.75,547.15 575.90,546.45 581.27,545.94C587.28,545.37 592.48,544.28 594.77,543.11C596.82,542.07 602.33,537.83 607.00,533.71C611.67,529.58 618.82,523.34 622.88,519.85C627.58,515.81 631.68,511.15 634.16,507.02C636.30,503.46 639.12,497.16 640.43,493.02C641.73,488.88 643.94,478.52 645.34,470.00C646.73,461.48 648.81,448.43 649.95,441.00C651.09,433.57 653.36,421.88 654.99,415.00C656.62,408.12 658.61,398.00 659.42,392.50C660.23,387.00 661.16,375.75 661.49,367.50C661.82,359.25 662.77,344.62 663.61,335.00C664.45,325.38 665.21,306.93 665.31,294.00C665.43,278.10 665.05,267.91 664.14,262.50C663.40,258.10 661.44,250.45 659.79,245.50C658.15,240.55 654.42,231.48 651.52,225.35C648.61,219.22 644.75,212.02 642.92,209.35C641.10,206.68 636.89,201.64 633.56,198.14C629.52,193.91 625.16,190.60 620.50,188.23C613.50,184.67 613.50,184.67 591.50,184.53C570.17,184.39 569.15,184.29 558.00,181.24C551.67,179.51 542.98,177.63 538.68,177.05C534.38,176.47 521.10,175.73 509.18,175.39C491.46,174.89 486.13,175.07 480.00,176.37C475.87,177.24 468.45,179.96 463.50,182.42C458.55,184.87 450.90,189.78 446.50,193.32C442.10,196.85 432.20,206.23 424.50,214.16C416.80,222.09 407.18,232.51 403.11,237.32C399.05,242.13 395.95,246.28 396.22,246.55C396.48,246.82 399.33,245.45 402.54,243.52C405.75,241.58 408.75,240.00 409.19,240.00C409.64,240.00 410.00,240.44 410.00,240.98C410.00,241.52 408.79,244.43 407.31,247.45C405.82,250.47 404.83,253.17 405.11,253.44C405.38,253.71 407.27,253.42 409.30,252.80C411.33,252.18 413.32,251.98 413.70,252.37C414.09,252.76 413.92,254.38 413.31,255.98C412.23,258.84 412.28,258.90 415.86,259.20C417.86,259.36 419.50,260.03 419.50,260.67C419.50,261.31 415.23,266.65 410.00,272.52C404.77,278.40 399.25,285.04 397.72,287.29C396.19,289.54 394.29,293.66 393.49,296.44C392.69,299.22 391.34,306.00 390.49,311.50C389.63,317.00 388.65,330.47 388.31,341.43C387.69,361.37 387.69,361.37 384.59,364.75C382.37,367.17 380.99,367.93 379.70,367.44C378.71,367.06 376.63,364.22 375.08,361.12C373.52,358.03 370.59,351.62 368.56,346.88C366.26,341.50 362.93,335.97 359.69,332.15C356.83,328.80 352.94,324.91 351.04,323.51C349.14,322.12 346.00,320.54 344.07,320.01C341.23,319.22 339.77,319.42 336.46,321.02C334.21,322.11 332.12,323.00 331.81,323.00C331.51,323.00 330.93,318.02 330.54,311.93C330.14,305.84 329.57,294.92 329.25,287.68C328.94,280.43 328.65,270.90 328.60,266.50C328.55,262.10 329.11,254.68 329.83,250.00C330.56,245.32 332.01,237.22 333.05,232.00C334.18,226.35 336.38,219.60 338.48,215.36C340.42,211.43 344.07,205.91 346.60,203.10C350.71,198.53 350.95,198.02 348.85,198.24C347.08,198.44 346.43,197.94 346.18,196.25C346.01,195.01 345.64,194.00 345.36,194.00C345.09,194.00 343.96,194.49 342.84,195.09C341.01,196.06 340.88,195.94 341.52,193.84C341.91,192.55 343.54,189.03 345.15,186.00C347.11,182.32 353.78,174.69 365.29,162.95C377.77,150.23 383.88,144.75 387.50,143.00C390.57,141.52 394.91,140.43 398.75,140.18C402.99,139.90 405.00,140.13 405.00,140.90C405.00,141.53 402.89,143.49 400.31,145.27C397.74,147.05 394.25,149.74 392.56,151.26C390.88,152.77 390.29,153.74 391.25,153.40C392.21,153.06 393.00,153.18 393.00,153.67C393.00,154.16 392.26,155.67 391.35,157.03C390.44,158.39 388.55,160.74 387.16,162.25C385.77,163.76 384.96,165.00 385.36,165.00C385.77,165.00 387.54,164.26 389.30,163.36C391.06,162.45 394.98,159.84 398.00,157.55C401.02,155.26 404.77,152.75 406.32,151.98C408.98,150.66 409.04,150.50 407.32,149.23C405.60,147.94 405.65,147.75 408.31,145.44C411.00,143.10 411.69,143.00 425.37,143.00C435.04,143.00 441.24,142.52 444.61,141.52C447.43,140.69 450.84,138.74 452.48,137.02C454.07,135.36 454.95,134.00 454.44,134.00C453.92,134.00 449.91,134.69 445.52,135.53C441.12,136.37 436.29,136.78 434.77,136.45C433.24,136.11 432.00,135.42 432.00,134.90C432.00,134.38 434.02,132.53 436.50,130.79C438.97,129.04 441.00,127.31 441.00,126.93C441.00,126.56 439.59,125.97 437.88,125.62C436.16,125.28 432.44,124.97 429.63,124.93C426.81,124.89 423.64,124.52 422.58,124.11C420.85,123.43 420.99,123.11 424.08,120.75C425.96,119.32 429.56,117.26 432.07,116.18C434.59,115.10 439.09,113.73 442.07,113.14C445.06,112.54 456.18,111.88 466.79,111.67C486.08,111.28 486.08,111.28 484.10,113.39C483.01,114.55 478.95,117.75 475.08,120.50C471.21,123.25 467.81,126.10 467.52,126.83C467.12,127.84 467.77,128.00 470.25,127.49C472.04,127.13 478.45,124.40 484.50,121.43C490.69,118.39 499.21,115.14 504.00,113.98C509.06,112.76 517.02,109.67 523.66,106.33C533.18,101.56 535.62,100.74 540.20,100.78C543.15,100.81 548.47,101.80 552.03,102.98C555.59,104.16 560.75,106.60 563.50,108.41C566.25,110.21 571.12,114.08 574.31,117.00C577.51,119.93 582.06,124.83 584.41,127.91C586.77,130.98 590.11,135.97 591.84,139.00C593.96,142.71 594.98,143.82 594.99,142.41C595.00,141.26 594.09,137.66 592.98,134.41C591.87,131.16 589.57,126.26 587.87,123.52C584.79,118.53 584.79,118.53 589.80,123.02C592.56,125.48 596.09,128.63 597.65,130.01C599.22,131.39 601.98,134.32 603.79,136.51C607.09,140.50 607.09,140.50 606.48,134.12C605.94,128.46 606.06,127.81 607.52,128.37C608.42,128.72 609.30,129.00 609.48,129.00C609.65,129.00 612.26,132.26 615.28,136.25C618.30,140.24 621.31,145.19 621.96,147.26C622.64,149.39 623.61,150.74 624.20,150.38C624.86,149.97 624.98,147.20 624.53,142.64C624.15,138.73 623.25,134.15 622.55,132.46C621.84,130.77 618.86,126.37 615.93,122.69C613.00,119.01 609.95,116.00 609.16,116.00C608.37,116.00 603.97,112.58 599.36,108.41C594.76,104.23 591.00,101.03 591.00,101.30C591.00,101.58 592.35,104.36 594.00,107.50C595.65,110.64 597.00,114.28 597.00,115.60C597.00,116.92 596.71,118.00 596.35,118.00C596.00,118.00 593.54,115.98 590.90,113.50C588.25,111.03 585.39,109.00 584.54,109.00C583.68,109.00 577.72,106.47 571.28,103.37C564.84,100.28 557.08,96.89 554.04,95.83C550.99,94.78 544.45,93.67 539.50,93.35C532.99,92.94 528.60,93.23 523.65,94.40C519.79,95.31 511.59,98.72 504.87,102.19C492.93,108.37 492.93,108.37 485.72,106.53C481.75,105.51 477.60,104.35 476.50,103.95C474.62,103.25 474.65,103.15 477.05,102.20C478.45,101.65 482.73,100.90 486.55,100.53C490.37,100.16 496.20,99.40 499.50,98.86C503.53,98.18 509.12,95.94 516.50,92.03C522.55,88.82 529.52,85.65 532.00,84.99C534.48,84.32 541.02,83.79 546.54,83.80C552.07,83.81 559.40,84.37 562.83,85.05C566.26,85.72 571.52,87.75 574.52,89.55C579.97,92.83 579.97,92.83 578.48,89.97C577.67,88.39 577.00,86.89 577.00,86.63C577.00,86.37 578.69,86.62 580.75,87.17C582.81,87.73 588.11,89.87 592.53,91.93C596.95,93.98 602.37,97.43 604.57,99.58C606.78,101.74 609.98,105.30 611.70,107.50C613.42,109.70 615.16,111.17 615.57,110.76C615.97,110.36 615.51,107.08 614.53,103.47C613.55,99.86 613.05,96.61 613.42,96.25C613.78,95.88 616.14,96.69 618.65,98.04C621.16,99.39 626.24,103.73 629.94,107.68C633.65,111.63 638.31,117.97 640.31,121.78C642.31,125.58 645.56,132.93 647.54,138.09C649.51,143.26 651.37,150.19 651.67,153.49C652.00,157.08 651.57,163.12 650.62,168.50C649.74,173.45 648.72,178.57 648.36,179.88C647.86,181.67 648.05,182.15 649.10,181.80C649.87,181.55 651.72,179.35 653.22,176.92C654.72,174.49 656.60,169.80 657.40,166.50C658.20,163.20 659.38,156.56 660.03,151.75C660.68,146.94 661.56,143.23 662.00,143.50C662.44,143.77 663.38,146.36 664.08,149.25C664.79,152.14 665.31,157.74 665.25,161.71C665.17,166.50 664.48,170.35 663.18,173.21C662.11,175.57 659.36,179.97 657.08,182.99C654.79,186.00 653.36,188.62 653.89,188.80C654.43,188.98 656.30,188.38 658.05,187.48C659.80,186.57 663.29,183.96 665.81,181.67C670.40,177.50 670.40,177.50 667.70,182.18C666.22,184.75 665.00,187.10 665.00,187.40C665.00,187.69 665.79,187.65 666.75,187.29C667.71,186.94 670.41,185.10 672.74,183.21C675.08,181.32 678.85,177.01 681.13,173.63C685.27,167.50 685.27,167.50 684.72,173.81C684.40,177.59 683.16,182.19 681.63,185.31C680.23,188.16 677.25,192.30 675.02,194.50C672.79,196.70 670.49,199.30 669.93,200.28C669.08,201.75 669.84,203.12 674.20,207.94C677.11,211.18 681.07,216.42 682.99,219.60C684.91,222.78 687.48,228.34 688.71,231.94C689.96,235.61 690.96,240.99 690.97,244.16C691.00,249.17 690.61,250.28 687.50,254.00C685.58,256.30 684.01,259.16 684.01,260.34C684.02,261.53 684.67,264.93 685.46,267.89C686.25,270.86 686.64,274.68 686.33,276.39C686.01,278.10 684.30,282.20 682.51,285.50C680.35,289.49 679.07,293.48 678.69,297.39C678.33,301.11 676.85,305.91 674.68,310.39C672.79,314.30 670.75,320.43 670.14,324.00C669.54,327.57 668.59,333.71 668.04,337.64C667.49,341.56 666.56,354.39 665.96,366.14C665.37,377.89 664.25,391.77 663.48,397.00C662.70,402.23 660.73,413.48 659.11,422.00C657.48,430.52 654.96,445.60 653.51,455.50C652.07,465.40 650.03,477.32 648.98,482.00C647.94,486.68 646.22,493.00 645.17,496.05C644.11,499.10 642.34,503.37 641.22,505.55C640.11,507.72 637.34,512.01 635.06,515.07C632.79,518.14 624.77,526.24 617.24,533.07C609.71,539.91 600.16,548.37 596.03,551.89C591.89,555.40 587.96,559.27 587.29,560.50C586.62,561.72 585.38,570.33 584.54,579.61C583.69,588.90 582.52,599.42 581.93,603.00C581.35,606.58 579.80,611.30 578.49,613.50C577.18,615.70 574.39,619.47 572.28,621.88C570.10,624.36 564.55,628.50 559.47,631.43C554.54,634.28 550.36,637.37 550.18,638.30C549.95,639.51 550.53,640.00 552.20,640.00C553.48,640.00 556.71,638.20 559.38,636.00C563.24,632.81 565.03,632.00 568.21,632.00C570.40,632.00 573.73,632.72 575.59,633.61C577.46,634.50 580.83,637.06 583.07,639.31C585.32,641.56 587.97,645.00 588.95,646.95C589.94,648.90 591.44,652.98 592.28,656.00C593.12,659.02 594.78,665.77 595.97,671.00C597.16,676.23 599.52,683.54 601.21,687.25C602.91,690.96 604.68,694.00 605.15,694.00C605.62,694.00 606.00,692.70 606.00,691.11C606.00,689.53 603.03,676.36 599.41,661.86C592.89,635.79 592.81,635.29 591.95,616.50C591.47,606.05 590.81,594.58 590.49,591.00C589.93,584.88 589.99,584.62 591.53,586.50C592.43,587.60 594.75,591.65 596.69,595.50C598.63,599.35 601.21,603.85 602.42,605.50C603.63,607.15 606.11,611.18 607.93,614.45C609.75,617.73 614.21,624.48 617.83,629.45C621.45,634.43 626.00,640.37 627.95,642.67C629.90,644.96 633.98,648.76 637.00,651.13C640.02,653.49 646.04,658.48 650.37,662.21C654.70,665.94 658.89,669.00 659.68,669.00C660.81,669.00 660.63,668.12 658.89,665.01C657.65,662.82 650.58,654.16 643.17,645.76C635.75,637.37 625.04,625.58 619.35,619.57C613.67,613.56 609.19,608.48 609.39,608.27C609.59,608.07 613.71,609.73 618.53,611.96C623.35,614.19 637.02,619.21 648.90,623.13C660.78,627.04 687.60,636.49 708.50,644.13C729.40,651.77 753.02,660.53 761.00,663.61C768.98,666.68 781.80,671.43 789.49,674.16C797.19,676.89 805.83,680.47 808.69,682.11C811.56,683.75 815.22,686.76 816.84,688.80C818.45,690.83 821.36,695.42 823.30,699.00C825.24,702.58 828.22,709.47 829.91,714.31C831.60,719.16 833.92,727.71 835.07,733.31C836.22,738.92 837.38,748.23 837.66,754.00C838.10,763.10 837.83,765.83 835.59,774.48C834.16,779.96 833.00,785.48 833.00,786.73C833.00,787.98 833.38,789.00 833.85,789.00C834.31,789.00 835.48,788.12 836.45,787.05C837.42,785.98 839.23,782.30 840.47,778.87C842.69,772.74 842.76,772.67 844.12,775.06C845.03,776.67 845.50,780.75 845.50,787.00C845.50,795.70 845.74,796.91 848.39,801.33C849.99,803.99 852.57,809.84 854.13,814.33C855.69,818.82 856.98,823.72 856.99,825.22C856.99,826.86 855.74,829.37 853.81,831.56C852.06,833.56 847.35,837.40 843.36,840.10C839.36,842.79 824.16,851.05 809.57,858.44C794.98,865.83 776.40,874.57 768.27,877.86C760.14,881.15 749.70,885.23 745.06,886.92C740.41,888.61 735.63,890.00 734.43,890.00C732.42,890.00 732.15,889.24 731.04,880.25C730.38,874.89 728.30,860.60 726.43,848.50C724.56,836.40 722.34,820.04 721.51,812.14C720.54,802.95 720.00,787.79 720.00,770.02C720.00,754.75 719.72,740.84 719.37,739.11C718.95,737.01 718.04,735.82 716.62,735.51C715.46,735.26 708.85,733.70 701.95,732.04C695.04,730.38 686.72,727.93 683.45,726.60C678.07,724.42 677.48,723.89 677.34,721.08C677.25,719.37 675.77,715.86 674.06,713.28C672.35,710.70 667.29,705.41 662.81,701.54C658.34,697.67 653.32,692.81 651.67,690.75C650.01,688.69 648.93,686.74 649.25,686.41C649.58,686.08 652.32,686.53 655.33,687.41C658.34,688.28 661.98,689.00 663.40,689.00C664.83,689.00 666.00,688.53 666.00,687.95C666.00,687.38 664.76,685.74 663.25,684.31C661.74,682.88 656.45,678.50 651.50,674.57C646.55,670.64 639.18,665.03 635.12,662.10C631.06,659.18 625.45,655.73 622.66,654.43C619.87,653.14 617.39,652.27 617.16,652.51C616.93,652.74 618.13,654.52 619.83,656.46C621.53,658.40 625.43,664.23 628.48,669.43C631.60,674.73 635.79,680.32 638.04,682.19C641.66,685.20 642.72,687.33 649.42,705.00C653.48,715.73 658.81,729.67 661.27,736.00C663.73,742.33 670.36,761.45 676.00,778.50C681.65,795.55 688.92,816.60 692.17,825.29C695.41,833.97 699.58,846.35 701.43,852.79C703.28,859.23 706.46,871.84 708.50,880.81C710.54,889.78 711.97,897.36 711.68,897.65C711.39,897.95 703.35,900.16 693.82,902.58C684.30,905.00 675.54,906.99 674.37,906.99C673.20,907.00 671.82,906.44 671.31,905.75C670.80,905.06 669.80,902.02 669.09,899.00C668.38,895.98 656.39,859.08 642.45,817.00C628.50,774.92 615.26,733.98 613.02,726.00C610.78,718.02 608.53,710.51 608.02,709.30C607.50,708.09 605.78,706.42 604.18,705.59C602.18,704.56 599.94,701.54 597.05,695.99C594.74,691.53 591.46,686.31 589.77,684.39C588.02,682.40 586.33,681.27 585.83,681.77C585.33,682.27 585.39,685.63 585.96,689.57C586.51,693.38 586.97,699.00 586.98,702.05C586.99,705.10 587.43,708.03 587.96,708.56C588.48,709.08 590.69,713.16 592.87,717.62C595.05,722.08 597.77,728.76 598.92,732.47C600.06,736.18 601.00,741.14 601.00,743.50C601.00,746.49 600.52,747.97 599.42,748.39C598.55,748.73 596.35,749.00 594.54,749.00C592.73,749.00 590.70,749.65 590.04,750.45C589.12,751.56 589.09,753.56 589.90,758.81C590.49,762.60 593.02,772.86 595.53,781.60C598.04,790.35 601.72,802.45 603.70,808.50C605.68,814.55 609.77,825.35 612.77,832.50C615.78,839.65 621.73,854.50 625.99,865.51C630.25,876.51 635.61,891.27 637.90,898.30C640.19,905.34 641.80,911.51 641.49,912.02C641.17,912.53 639.25,913.39 637.21,913.93C635.17,914.47 625.31,916.11 615.30,917.58C605.29,919.05 596.45,920.00 595.65,919.70C594.70,919.33 592.30,911.31 588.66,896.32C585.61,883.77 581.77,866.98 580.12,859.00C578.48,851.02 575.55,835.27 573.62,824.00C571.69,812.73 569.65,799.23 569.08,794.00C568.52,788.77 567.58,778.42 567.00,771.00C566.43,763.58 565.72,756.04 565.43,754.25C565.14,752.46 564.32,751.00 563.61,751.00C562.89,751.00 561.48,751.92 560.46,753.05C559.19,754.44 557.63,755.00 555.55,754.80C552.50,754.50 552.50,754.49 551.71,746.50C551.28,742.10 550.70,736.62 550.41,734.33C550.02,731.10 548.53,728.50 543.84,722.83C540.50,718.80 536.43,712.58 534.78,709.00C533.12,705.42 530.00,699.46 527.84,695.75C525.68,692.04 523.47,689.00 522.93,689.00C522.40,689.00 521.47,690.24 520.87,691.75C520.28,693.26 518.60,697.20 517.14,700.49C515.69,703.79 511.96,710.32 508.85,714.99C505.74,719.67 501.56,725.19 499.55,727.25C497.50,729.36 494.93,731.00 493.69,731.00C492.47,731.00 489.00,729.35 485.99,727.34C482.97,725.32 476.23,719.33 471.00,714.03C465.77,708.73 460.20,702.50 458.60,700.18C457.01,697.86 455.98,695.69 456.31,695.35C456.65,695.02 461.33,697.58 466.71,701.04C472.10,704.50 480.32,710.19 485.00,713.67C489.67,717.15 494.21,720.00 495.08,720.00C495.94,720.00 497.55,718.99 498.65,717.75C499.75,716.51 502.04,713.25 503.75,710.50C505.46,707.75 508.49,701.90 510.50,697.50C512.50,693.10 515.69,685.76 517.59,681.18C519.49,676.60 522.89,669.18 525.15,664.68C527.41,660.18 531.28,653.35 533.75,649.50C536.23,645.65 540.04,640.84 542.22,638.81C544.41,636.79 545.90,634.65 545.54,634.06C545.18,633.48 543.84,633.00 542.58,633.00C541.31,633.00 539.12,632.10 537.72,630.99C536.31,629.89 528.71,625.70 520.83,621.70C512.95,617.69 500.57,612.07 493.33,609.21C486.09,606.34 479.91,604.00 479.59,604.00C479.28,604.00 469.45,599.92 457.76,594.94C446.07,589.95 432.28,583.63 427.13,580.88C421.97,578.14 414.55,573.72 410.63,571.06C406.71,568.40 400.80,563.87 397.50,560.99C394.20,558.10 389.97,554.11 388.10,552.12C386.23,550.13 383.41,546.50 381.85,544.05C379.33,540.13 379.00,538.68 379.00,531.72C379.00,525.87 378.68,523.93 377.75,524.23C377.06,524.44 375.19,528.42 373.60,533.06C371.61,538.83 370.55,544.19 370.24,550.00C369.84,557.31 370.16,559.62 372.45,566.50C373.92,570.90 376.95,577.88 379.19,582.00C381.42,586.12 386.19,594.45 389.79,600.50C393.38,606.55 404.28,623.65 414.01,638.50C423.74,653.35 435.07,671.35 439.18,678.50C443.29,685.65 449.17,696.23 452.24,702.00C455.32,707.77 458.72,714.75 459.81,717.50C460.89,720.25 467.73,735.10 474.99,750.50C482.26,765.90 494.29,791.10 501.72,806.50C509.16,821.90 520.06,845.52 525.96,859.00C531.86,872.48 541.08,894.47 546.46,907.87C551.83,921.28 556.29,933.63 556.37,935.33C556.49,938.23 556.24,938.45 552.00,939.14C549.52,939.54 537.54,940.35 525.37,940.94C513.20,941.52 496.42,942.00 488.08,942.00zM313.27,913.00C313.95,912.99 315.96,912.10 317.75,911.01C320.52,909.32 320.99,908.47 320.94,905.26C320.90,903.19 320.30,894.30 319.59,885.50C318.89,876.70 318.50,869.15 318.73,868.72C318.96,868.30 321.03,869.40 323.32,871.18C325.62,872.96 330.30,876.99 333.73,880.15C337.15,883.31 341.88,886.99 344.23,888.33C346.81,889.81 350.98,891.04 354.75,891.44C360.50,892.05 361.00,891.94 361.00,890.16C361.00,888.28 361.72,888.23 382.25,888.68C393.94,888.94 405.95,889.57 408.93,890.08C411.92,890.58 415.18,891.00 416.18,891.00C417.18,891.00 418.00,890.49 418.00,889.87C418.00,889.25 416.44,887.26 414.53,885.46C412.09,883.16 408.12,881.21 401.28,878.95C395.90,877.17 389.39,874.66 386.80,873.37C384.07,872.00 380.61,869.06 378.53,866.33C376.55,863.75 370.92,857.11 365.99,851.57C361.07,846.03 354.90,839.66 352.27,837.42C349.65,835.17 343.68,830.60 339.00,827.26C334.32,823.93 329.09,819.69 327.37,817.85C325.65,816.01 322.61,812.32 320.62,809.66C318.62,807.01 317.23,804.43 317.53,803.95C317.83,803.46 319.52,803.34 321.29,803.68C323.05,804.01 329.68,806.08 336.00,808.28C342.32,810.47 349.98,813.50 353.00,815.00C356.02,816.51 359.51,818.05 360.75,818.44C362.25,818.90 363.00,818.72 363.00,817.90C363.00,817.21 357.66,808.52 351.12,798.58C344.59,788.63 335.22,773.98 330.29,766.00C325.37,758.02 318.79,746.97 315.67,741.44C312.55,735.90 310.00,730.42 310.00,729.25C310.00,728.08 311.23,726.27 312.75,725.20C314.26,724.13 321.12,720.24 328.00,716.55C334.88,712.87 341.37,709.00 342.44,707.96C343.51,706.91 344.19,705.87 343.94,705.65C343.70,705.42 336.52,703.81 328.00,702.06C319.48,700.31 310.23,697.85 307.45,696.59C304.68,695.33 300.74,692.83 298.70,691.05C296.37,688.99 295.00,686.91 295.00,685.40C295.00,683.25 295.44,683.00 299.14,683.00C303.28,683.00 303.28,683.00 302.73,674.75C302.43,670.21 301.58,664.70 300.84,662.50C299.60,658.80 298.82,658.18 290.50,654.26C285.55,651.93 279.02,648.78 276.00,647.26C272.98,645.74 270.37,643.80 270.21,642.94C270.05,642.08 272.20,637.88 274.99,633.62C277.77,629.35 282.13,623.63 284.68,620.91C287.22,618.19 289.09,615.75 288.82,615.49C288.56,615.22 285.90,615.72 282.92,616.60C279.94,617.48 268.73,621.36 258.00,625.22C247.28,629.08 234.22,634.38 229.00,637.00C223.78,639.62 210.50,645.24 199.50,649.49C188.50,653.73 172.97,660.11 165.00,663.66C157.03,667.22 141.33,674.20 130.12,679.18C112.42,687.05 108.54,688.40 100.50,689.52C95.42,690.23 89.96,691.49 88.38,692.31C86.79,693.12 84.64,694.74 83.59,695.90C82.54,697.06 81.89,698.22 82.15,698.48C82.41,698.74 87.06,698.29 92.47,697.48C97.89,696.67 104.99,696.00 108.24,696.00C111.89,696.00 116.99,696.96 121.60,698.50C125.70,699.88 132.60,702.79 136.95,704.97C141.29,707.16 148.81,711.28 153.67,714.13C158.53,716.98 169.04,723.71 177.04,729.09C185.03,734.46 193.83,741.25 196.58,744.18C199.34,747.11 204.39,753.45 207.81,758.29C211.24,763.12 217.46,772.78 221.64,779.76C225.82,786.74 231.08,796.17 233.34,800.72C235.60,805.28 237.80,809.00 238.22,809.00C238.65,809.00 238.99,806.64 238.99,803.75C238.98,800.86 238.09,789.95 237.00,779.50C235.91,769.05 235.02,758.74 235.01,756.60C235.00,752.69 235.00,752.69 237.12,754.60C238.28,755.64 241.20,759.85 243.60,763.95C246.00,768.05 249.75,776.83 251.92,783.45C254.10,790.08 256.64,798.32 257.58,801.78C258.51,805.23 259.62,808.27 260.04,808.52C260.46,808.78 261.27,806.86 261.84,804.25C262.41,801.64 263.16,797.75 263.51,795.62C263.86,793.49 264.50,792.14 264.95,792.62C265.39,793.10 266.48,795.75 267.36,798.50C268.25,801.25 270.54,812.95 272.46,824.50C274.38,836.05 276.55,847.52 277.27,850.00C278.00,852.48 279.02,854.50 279.54,854.50C280.07,854.50 280.81,851.12 281.18,847.00C281.56,842.88 282.27,838.44 282.75,837.14C283.52,835.06 284.16,836.04 287.94,845.14C290.31,850.84 294.19,861.58 296.56,869.00C298.93,876.42 302.71,888.34 304.96,895.47C307.21,902.60 309.73,909.46 310.55,910.72C311.37,911.97 312.60,913.00 313.27,913.00zM216.50,909.91C222.55,909.94 228.18,909.54 229.00,909.02C230.29,908.20 230.21,907.78 228.44,906.00C227.30,904.86 223.22,902.86 219.37,901.56C215.51,900.25 206.99,897.76 200.43,896.02C193.87,894.28 180.43,890.38 170.56,887.35C160.70,884.32 144.83,879.86 135.30,877.43C125.77,875.01 114.72,872.63 110.74,872.14C106.76,871.65 102.90,871.57 102.17,871.96C101.31,872.42 102.71,873.46 106.17,874.93C109.10,876.18 115.10,878.69 119.50,880.51C123.90,882.33 134.03,887.19 142.00,891.32C152.26,896.62 159.86,899.76 168.00,902.05C174.32,903.84 185.35,906.32 192.50,907.57C200.41,908.95 209.81,909.87 216.50,909.91zM228.50,886.88C230.07,886.91 229.48,885.98 225.80,882.60C223.22,880.22 216.61,875.70 211.11,872.56C205.60,869.42 198.76,865.96 195.89,864.87C193.02,863.78 183.26,861.10 174.19,858.93C165.12,856.75 157.46,855.20 157.17,855.49C156.88,855.78 157.96,857.40 159.57,859.09C161.18,860.77 166.38,865.04 171.11,868.58C175.85,872.11 180.16,875.00 180.69,875.00C181.22,875.00 184.33,876.09 187.60,877.42C190.87,878.74 198.49,880.59 204.52,881.52C210.56,882.45 217.97,884.03 221.00,885.03C224.03,886.03 227.40,886.86 228.50,886.88zM233.75,863.99C233.89,864.00 234.00,863.17 234.00,862.16C234.00,861.14 231.86,858.10 229.25,855.39C226.64,852.68 220.22,847.49 215.00,843.87C209.78,840.24 203.02,835.88 199.99,834.18C196.95,832.47 189.54,829.22 183.51,826.96C177.48,824.69 168.49,821.75 163.52,820.42C158.56,819.09 153.88,818.00 153.13,818.00C152.04,818.00 152.01,818.30 152.95,819.45C153.61,820.24 156.48,822.33 159.33,824.08C162.17,825.84 167.43,829.19 171.00,831.51C174.57,833.84 182.13,838.73 187.79,842.38C193.45,846.02 200.20,850.07 202.79,851.37C205.38,852.67 212.00,855.13 217.50,856.85C223.00,858.56 228.85,860.87 230.50,861.97C232.15,863.08 233.61,863.99 233.75,863.99zM766.91,857.00C767.99,857.00 771.71,855.80 775.18,854.33C778.66,852.86 782.25,851.02 783.17,850.24C784.09,849.47 785.43,846.51 786.15,843.67C786.99,840.33 787.41,832.73 787.32,822.25C787.25,813.31 787.36,806.00 787.57,806.00C787.78,806.00 788.75,807.46 789.72,809.25C791.50,812.50 791.50,812.50 792.00,800.00C792.45,788.80 792.68,787.53 794.25,787.79C795.21,787.96 796.00,787.51 795.99,786.79C795.99,786.08 794.42,778.98 792.50,771.00C790.58,763.02 789.03,754.70 789.05,752.50C789.08,748.50 789.08,748.50 793.37,753.15C795.72,755.71 799.26,760.89 801.23,764.65C803.20,768.42 805.94,775.33 807.32,780.00C808.69,784.67 810.36,790.86 811.01,793.75C811.73,796.93 812.61,798.74 813.25,798.35C813.95,797.91 814.09,792.40 813.68,781.60C813.34,772.74 812.64,763.02 812.13,760.00C811.61,756.98 810.87,749.77 810.48,744.00C810.04,737.49 810.13,733.88 810.71,734.50C811.22,735.05 812.88,738.76 814.41,742.75C815.93,746.74 817.65,750.00 818.24,750.00C818.95,750.00 819.08,747.18 818.63,741.30C818.26,736.52 817.04,728.12 815.93,722.63C814.81,717.14 812.57,709.25 810.96,705.08C809.35,700.91 806.33,694.58 804.26,691.00C801.47,686.19 799.49,684.01 796.63,682.61C794.50,681.57 787.76,679.03 781.63,676.96C775.51,674.89 759.92,669.27 747.00,664.47C734.08,659.68 711.35,651.58 696.50,646.49C681.65,641.40 663.20,634.99 655.50,632.26C647.80,629.52 640.19,626.96 638.59,626.58C635.84,625.92 635.76,625.99 637.09,627.84C637.86,628.92 646.44,639.19 656.15,650.65C665.86,662.12 678.57,676.23 684.39,682.00C690.22,687.77 694.99,693.02 694.99,693.66C695.00,694.29 691.17,697.36 686.50,700.47C681.83,703.58 678.00,706.77 678.00,707.56C678.00,708.35 678.76,709.00 679.69,709.00C680.61,709.00 685.67,706.57 690.94,703.60C696.20,700.64 702.18,697.68 704.23,697.03C706.28,696.39 708.42,696.14 708.98,696.49C709.54,696.83 710.00,698.19 710.00,699.50C710.00,701.11 708.45,703.22 705.25,705.97C702.64,708.21 698.02,711.52 695.00,713.33C691.98,715.14 689.50,717.25 689.50,718.01C689.50,718.85 692.02,720.10 696.00,721.22C699.58,722.23 707.00,724.44 712.50,726.13C718.00,727.82 723.24,729.86 724.15,730.66C725.06,731.47 726.06,733.56 726.37,735.32C726.69,737.07 728.09,748.85 729.48,761.50C730.88,774.15 732.91,791.25 734.00,799.50C735.08,807.75 736.66,820.12 737.50,827.00C738.34,833.88 739.51,841.93 740.11,844.90C740.88,848.67 741.47,849.87 742.09,848.90C742.57,848.13 743.01,837.15 743.05,824.50C743.10,811.85 743.50,800.60 743.94,799.50C744.64,797.74 744.93,797.96 746.37,801.37C747.26,803.50 748.00,805.66 748.00,806.18C748.00,806.69 751.44,817.32 755.64,829.80C759.84,842.29 763.65,853.51 764.11,854.75C764.59,856.03 765.79,857.00 766.91,857.00zM834.49,829.00C836.27,829.00 837.70,827.89 839.55,825.10C840.98,822.95 842.78,819.05 843.57,816.44C844.36,813.82 845.00,808.41 845.00,804.40C845.00,800.39 844.59,796.86 844.08,796.55C843.57,796.24 842.48,796.66 841.65,797.49C840.83,798.32 838.54,801.64 836.57,804.88C834.61,808.11 833.00,811.10 833.00,811.50C833.00,811.91 833.60,811.74 834.34,811.13C835.08,810.52 835.93,810.26 836.22,810.56C836.52,810.86 836.36,812.92 835.85,815.15C835.35,817.38 834.28,820.49 833.47,822.06C832.66,823.62 832.00,825.82 832.00,826.95C832.00,828.47 832.65,829.00 834.49,829.00zM221.25,823.96C221.66,823.98 222.00,823.44 221.99,822.75C221.99,822.06 219.28,816.63 215.97,810.67C212.66,804.72 203.71,790.02 196.09,778.01C188.47,765.99 179.75,752.87 176.70,748.83C173.66,744.80 168.20,738.49 164.56,734.80C160.92,731.12 154.60,726.03 150.53,723.48C146.45,720.94 139.60,717.38 135.30,715.57C131.01,713.77 123.45,711.10 118.50,709.64C113.55,708.19 105.97,706.32 101.66,705.50C97.35,704.67 90.60,704.02 86.66,704.04C82.72,704.07 77.80,704.70 75.72,705.44C73.64,706.18 70.36,707.85 68.44,709.14C66.43,710.50 63.91,713.62 62.50,716.50C61.15,719.25 59.56,723.83 58.96,726.67C58.36,729.51 58.01,733.56 58.18,735.67C58.49,739.33 58.67,739.08 62.30,729.82C64.39,724.50 67.05,718.93 68.22,717.45C69.38,715.97 71.82,714.14 73.64,713.38C75.50,712.60 80.39,712.00 84.86,712.00C90.29,712.00 95.55,712.79 101.64,714.51C106.51,715.89 114.31,718.93 118.97,721.26C123.62,723.59 130.96,728.14 135.27,731.36C139.57,734.59 145.66,740.26 148.80,743.96C151.93,747.67 158.32,755.98 163.00,762.43C167.68,768.88 173.42,777.15 175.77,780.82C178.12,784.49 179.65,787.62 179.18,787.77C178.71,787.93 170.49,786.05 160.92,783.59C151.34,781.14 141.07,778.81 138.10,778.42C133.62,777.82 132.84,777.94 133.53,779.10C133.98,779.87 135.48,781.99 136.85,783.82C138.22,785.65 141.18,788.38 143.42,789.90C145.67,791.41 156.05,796.76 166.50,801.78C177.28,806.95 191.56,812.88 199.50,815.48C207.20,818.00 215.07,820.93 217.00,821.99C218.93,823.05 220.84,823.94 221.25,823.96zM705.98,818.37C705.53,818.85 704.66,817.50 704.05,815.37C703.44,813.24 701.87,805.20 700.56,797.50C699.25,789.80 697.63,777.09 696.95,769.25C695.72,755.00 695.72,755.00 692.40,755.00C690.13,755.00 688.74,754.38 688.04,753.07C687.47,752.00 687.00,749.78 687.00,748.12C687.00,746.47 687.45,744.84 688.01,744.50C688.56,744.15 692.87,744.84 697.57,746.02C702.28,747.20 706.83,747.90 707.67,747.57C708.73,747.17 709.02,746.23 708.61,744.58C708.28,743.26 707.73,741.47 707.40,740.59C707.06,739.72 707.25,739.00 707.82,739.00C708.39,739.00 709.53,739.67 710.36,740.50C711.18,741.32 712.16,744.43 712.53,747.39C712.90,750.36 712.90,753.75 712.52,754.92C711.94,756.76 711.33,756.98 708.17,756.44C706.15,756.10 703.71,755.61 702.75,755.35C701.62,755.04 701.00,755.42 701.00,756.43C701.00,757.29 702.63,759.80 704.62,762.00C706.61,764.20 708.83,766.00 709.57,766.00C710.31,766.00 711.21,767.59 711.58,769.57C711.95,771.53 711.94,778.17 711.56,784.32C711.19,790.47 709.96,800.45 708.84,806.50C707.72,812.55 706.43,817.89 705.98,818.37zM51.50,787.00C51.76,787.00 54.69,785.57 58.01,783.83C62.94,781.25 65.56,780.58 72.19,780.19C80.33,779.72 80.33,779.72 76.92,777.93C75.04,776.94 70.43,775.37 66.67,774.44C62.91,773.51 59.62,772.18 59.36,771.49C59.09,770.80 59.58,768.55 60.44,766.49C61.30,764.44 62.00,762.59 62.00,762.38C62.00,762.17 60.18,762.00 57.95,762.00C54.25,762.00 53.77,762.31 52.40,765.57C51.58,767.54 50.65,771.99 50.32,775.47C50.00,778.95 50.02,782.96 50.38,784.39C50.74,785.83 51.25,787.00 51.50,787.00zM610.07,773.00C609.56,773.00 608.21,771.70 607.08,770.11C605.94,768.51 603.43,763.50 601.48,758.96C599.54,754.43 598.18,750.49 598.45,750.21C598.73,749.94 599.71,750.34 600.63,751.11C601.55,751.87 604.26,756.52 606.65,761.43C609.04,766.34 611.00,770.95 611.00,771.68C611.00,772.40 610.58,773.00 610.07,773.00zM456.79,739.12C456.97,738.58 454.21,730.79 450.66,721.82C447.11,712.84 442.41,701.45 440.22,696.50C438.02,691.55 433.45,682.33 430.05,676.00C426.66,669.67 418.72,656.81 412.41,647.41C406.10,638.00 399.60,629.03 397.97,627.47C395.00,624.63 395.00,624.63 395.00,628.67C395.00,632.12 394.14,633.78 389.22,639.82C386.04,643.72 381.20,650.64 378.48,655.21C375.75,659.77 370.93,668.57 367.76,674.77C364.59,680.97 362.00,686.65 362.00,687.40C362.00,688.15 363.59,689.98 365.53,691.46C369.04,694.13 369.09,694.14 371.93,692.33C373.50,691.32 379.83,686.00 385.99,680.50C392.16,675.00 399.94,668.59 403.28,666.25C406.62,663.91 409.73,662.00 410.19,662.00C410.64,662.00 412.78,665.81 414.93,670.47C417.08,675.13 422.50,685.50 426.97,693.51C431.44,701.52 438.72,714.02 443.14,721.29C447.57,728.55 452.38,735.76 453.83,737.30C455.28,738.84 456.61,739.66 456.79,739.12zM576.39,714.80C579.48,714.50 579.50,714.47 579.80,708.00C579.97,704.42 579.40,697.34 578.53,692.26C577.67,687.17 576.67,677.33 576.32,670.37C575.75,659.22 575.41,657.43 573.42,655.12C571.31,652.67 570.62,652.50 562.83,652.57C557.50,652.61 552.34,653.33 548.50,654.57C542.50,656.50 542.50,656.50 556.00,657.00C569.50,657.50 569.50,657.50 569.80,660.08C569.97,661.50 568.73,666.95 567.05,672.18C565.37,677.42 564.00,683.30 564.00,685.24C564.00,687.19 564.89,690.74 565.98,693.14C567.07,695.54 567.97,698.49 567.98,699.71C567.99,700.93 568.95,702.81 570.12,703.89C571.45,705.13 572.42,707.57 572.75,710.48C573.26,714.96 573.37,715.10 576.39,714.80zM382.55,672.96C382.03,672.98 383.02,671.54 384.74,669.75C386.46,667.96 390.32,661.70 393.32,655.83C396.33,649.96 399.00,644.56 399.28,643.83C399.64,642.85 400.18,643.02 401.36,644.50C402.23,645.60 403.71,648.46 404.65,650.86C406.11,654.59 406.15,655.34 404.93,656.04C404.14,656.48 399.00,660.47 393.50,664.89C388.00,669.31 383.07,672.94 382.55,672.96zM709.25,662.93C707.19,662.90 703.48,662.24 701.01,661.47C698.54,660.70 695.96,659.29 695.26,658.34C694.57,657.39 694.00,656.20 694.00,655.68C694.00,655.15 695.72,655.02 698.00,655.38C700.20,655.74 704.47,657.12 707.50,658.46C710.52,659.79 713.00,661.36 713.00,661.94C713.00,662.53 711.31,662.97 709.25,662.93zM195.03,661.99C193.99,662.00 194.13,661.61 195.53,660.68C196.61,659.95 201.50,657.21 206.40,654.59C211.29,651.97 219.39,648.01 224.40,645.78C229.40,643.55 237.74,640.44 242.91,638.87C248.09,637.29 252.48,636.00 252.66,636.00C252.85,636.00 253.00,636.65 253.00,637.45C253.00,638.25 251.54,639.98 249.75,641.29C247.96,642.61 243.57,645.27 240.00,647.21C236.43,649.15 230.57,651.89 227.00,653.30C223.42,654.71 215.10,657.24 208.50,658.92C201.90,660.61 195.84,661.99 195.03,661.99zM548.72,633.00C550.01,633.00 552.51,632.39 554.28,631.65C556.05,630.91 559.17,628.45 561.21,626.19C563.26,623.92 566.01,619.92 567.34,617.29C568.66,614.65 570.92,608.40 572.35,603.39C573.78,598.39 576.27,587.81 577.88,579.89C579.50,571.90 580.42,565.10 579.95,564.60C579.45,564.07 576.74,565.12 573.46,567.10C570.36,568.97 563.92,573.79 559.16,577.81C554.40,581.83 547.67,587.16 544.20,589.64C540.74,592.13 534.99,595.49 531.43,597.10C527.87,598.72 522.04,600.71 518.48,601.54C514.91,602.37 510.87,603.56 509.50,604.18C508.12,604.81 507.00,606.09 507.00,607.04C507.00,607.99 509.42,610.59 512.37,612.82C515.33,615.05 521.52,618.88 526.12,621.34C530.73,623.80 537.17,627.43 540.44,629.41C543.71,631.38 547.44,633.00 548.72,633.00zM315.40,603.80C316.56,603.18 322.68,598.50 329.00,593.40C335.32,588.29 343.20,581.91 346.50,579.23C352.40,574.43 352.50,574.26 352.41,569.42C352.37,566.72 351.96,561.01 351.52,556.75C351.07,552.49 350.34,549.00 349.90,549.00C349.46,549.00 348.38,550.01 347.51,551.25C346.64,552.49 343.43,557.33 340.38,562.00C337.33,566.67 332.51,572.90 329.67,575.84C326.82,578.78 321.89,582.97 318.70,585.16C315.51,587.35 312.47,590.27 311.95,591.64C311.43,593.01 311.00,596.04 311.00,598.37C311.00,600.69 311.52,603.12 312.15,603.75C313.01,604.61 313.85,604.62 315.40,603.80zM542.00,563.86C548.88,563.89 557.65,563.54 561.50,563.08C565.35,562.62 570.30,561.74 572.50,561.13C574.70,560.51 577.16,559.57 577.97,559.05C578.78,558.53 579.22,557.88 578.94,557.61C578.67,557.34 574.30,557.50 569.22,557.98C563.96,558.47 552.16,558.46 541.75,557.95C527.23,557.24 520.03,556.34 506.50,553.53C497.15,551.59 485.23,548.80 480.00,547.32C474.77,545.85 466.00,542.89 460.50,540.76C455.00,538.62 446.00,535.15 440.50,533.04C435.00,530.94 429.49,528.91 428.25,528.54C427.01,528.17 426.00,528.29 426.00,528.82C426.00,529.34 428.81,531.57 432.25,533.78C435.69,535.99 441.65,539.16 445.50,540.82C449.35,542.49 458.35,545.85 465.50,548.30C472.65,550.74 485.70,554.58 494.50,556.83C503.30,559.07 514.77,561.56 520.00,562.36C525.23,563.15 535.12,563.83 542.00,563.86zM566.62,507.83C561.61,507.73 553.65,507.40 548.95,507.08C542.98,506.67 539.52,505.92 537.50,504.60C535.90,503.55 531.54,499.59 527.80,495.80C524.06,492.00 521.00,488.31 521.00,487.58C521.00,486.58 523.20,486.87 530.25,488.78C538.11,490.92 542.29,491.37 558.01,491.75C569.69,492.04 577.99,491.81 580.51,491.12C582.70,490.52 588.33,487.36 593.00,484.10C597.67,480.83 602.40,477.42 603.50,476.52C605.41,474.96 605.29,474.91 601.00,475.38C598.23,475.68 595.54,475.35 594.02,474.52C592.58,473.75 590.90,473.52 590.02,473.98C589.18,474.42 581.66,474.68 573.29,474.57C563.47,474.44 557.09,474.78 555.29,475.54C552.99,476.50 551.65,476.38 547.71,474.86C545.08,473.84 541.14,473.00 538.96,473.00C536.27,473.00 535.00,473.44 535.00,474.37C535.00,475.13 536.95,477.54 539.33,479.74C541.77,481.99 545.91,484.47 548.82,485.44C551.65,486.38 554.23,487.57 554.55,488.08C554.86,488.59 553.18,489.00 550.79,489.00C548.41,489.00 543.09,488.07 538.98,486.94C534.87,485.81 526.44,482.21 520.26,478.94C514.07,475.67 507.92,473.00 506.59,473.00C505.25,473.00 502.85,473.75 501.25,474.67C499.65,475.59 497.59,476.06 496.67,475.70C495.75,475.35 495.00,474.26 495.00,473.28C495.01,472.30 495.89,470.06 496.96,468.29C498.04,466.53 500.79,464.13 503.07,462.97C507.21,460.85 507.21,460.85 508.74,463.04C510.09,464.97 510.85,465.14 515.27,464.56C518.01,464.19 525.49,461.70 531.88,459.02C538.27,456.33 545.66,453.60 548.29,452.94C550.93,452.28 554.98,452.00 557.30,452.32C559.61,452.63 563.72,453.87 566.43,455.07C571.35,457.25 571.35,457.25 578.05,455.05C583.90,453.14 585.31,453.01 589.12,454.03C591.52,454.68 595.29,456.12 597.49,457.24C599.70,458.35 603.08,460.48 605.00,461.97C606.92,463.45 609.26,464.94 610.19,465.28C611.16,465.63 612.97,465.02 614.47,463.85C615.89,462.73 617.71,462.06 618.50,462.36C619.29,462.67 620.23,464.08 620.59,465.50C621.04,467.28 620.68,468.69 619.44,470.06C618.46,471.15 615.27,472.74 612.37,473.58C608.90,474.59 606.89,475.77 606.49,477.04C606.15,478.10 603.95,481.34 601.59,484.24C599.23,487.13 596.59,490.89 595.71,492.59C594.83,494.29 591.43,498.16 588.16,501.19C584.58,504.50 580.91,506.97 578.97,507.36C577.20,507.71 571.64,507.92 566.62,507.83zM568.89,464.38C569.11,464.20 568.76,463.42 568.13,462.65C567.49,461.89 564.91,460.47 562.39,459.51C558.65,458.08 557.34,457.98 555.21,458.95C553.12,459.90 552.89,460.32 554.05,461.05C554.85,461.56 557.08,462.00 559.00,462.03C560.92,462.06 563.85,462.68 565.50,463.40C567.15,464.13 568.68,464.57 568.89,464.38zM584.00,463.00C586.75,463.00 589.00,462.56 589.00,462.02C589.00,461.48 587.88,460.76 586.50,460.41C585.12,460.07 582.88,460.07 581.50,460.41C580.12,460.76 579.00,461.48 579.00,462.02C579.00,462.56 581.25,463.00 584.00,463.00zM573.32,447.81C571.24,448.11 571.15,447.78 571.22,440.51C571.26,436.32 570.89,432.55 570.40,432.11C569.90,431.68 566.80,430.39 563.50,429.26C560.13,428.10 553.90,427.00 549.30,426.76C542.61,426.41 540.39,425.86 537.21,423.76C535.07,422.34 532.57,419.61 531.66,417.69C530.75,415.77 530.00,413.27 530.00,412.14C530.00,411.00 530.90,407.68 532.00,404.74C533.10,401.78 536.18,396.95 538.91,393.89C541.77,390.68 546.27,387.09 549.67,385.31C552.87,383.63 556.06,382.45 556.75,382.71C557.58,383.01 558.00,385.44 558.00,389.96C558.00,394.95 557.58,397.11 556.41,398.07C554.99,399.25 554.86,398.87 555.13,394.45C555.37,390.51 555.10,389.45 553.78,389.20C552.88,389.02 550.75,389.60 549.06,390.47C547.36,391.35 544.34,394.53 542.34,397.54C539.81,401.35 538.56,404.49 538.24,407.86C537.98,410.55 538.29,413.67 538.92,414.85C539.55,416.03 540.74,417.00 541.56,417.00C542.43,417.00 543.31,415.70 543.67,413.89C544.02,412.17 545.77,409.29 547.58,407.48C549.39,405.68 552.53,403.65 554.56,402.98C557.34,402.06 559.18,402.04 561.94,402.87C563.97,403.47 567.40,405.50 569.57,407.37C573.32,410.62 573.49,411.04 573.37,416.39C573.27,420.79 573.57,422.00 574.75,422.00C575.58,422.00 578.13,420.09 580.42,417.75C582.71,415.41 586.42,411.30 588.67,408.62C591.03,405.80 593.24,404.03 593.88,404.43C594.50,404.81 595.00,406.23 595.00,407.59C595.00,408.95 595.71,410.34 596.58,410.67C597.45,411.00 598.86,410.57 599.73,409.70C601.09,408.34 601.13,407.52 600.01,403.55C599.31,401.03 597.40,396.86 595.77,394.29C593.49,390.70 592.23,386.58 590.35,376.56C589.01,369.38 586.53,356.30 584.86,347.50C582.76,336.54 581.96,329.74 582.29,325.93C582.56,322.86 583.73,318.49 584.89,316.21C586.06,313.93 590.72,307.96 595.25,302.94C599.79,297.92 605.30,292.88 607.50,291.74C610.61,290.13 614.27,289.52 624.00,288.99C630.88,288.61 637.87,288.68 639.53,289.14C641.20,289.60 644.67,291.31 647.23,292.93C649.80,294.56 653.10,297.71 654.57,299.93C656.05,302.16 657.47,305.99 657.75,308.48C658.03,310.98 657.84,313.00 657.33,313.00C656.81,313.00 653.85,310.14 650.75,306.65C645.11,300.31 645.11,300.31 637.59,300.16C633.46,300.08 628.90,300.47 627.47,301.01C626.03,301.56 621.63,302.50 617.68,303.11C613.73,303.71 608.92,304.86 607.00,305.66C605.08,306.45 602.22,308.32 600.65,309.80C599.09,311.29 596.57,314.98 595.06,318.00C593.55,321.02 590.87,326.30 589.10,329.72C585.88,335.93 585.88,335.93 588.43,346.22C589.84,351.87 592.53,364.60 594.42,374.50C597.21,389.18 598.51,393.76 601.42,399.32C603.39,403.08 605.00,407.25 605.00,408.60C605.00,409.96 604.39,412.51 603.64,414.28C602.90,416.05 600.39,419.45 598.07,421.83C595.75,424.21 592.44,426.75 590.73,427.47C588.09,428.58 587.12,428.55 584.40,427.25C581.38,425.81 580.97,425.86 577.47,428.02C573.76,430.31 573.76,430.32 574.51,435.41C574.92,438.21 575.31,442.07 575.38,444.00C575.48,446.88 575.11,447.55 573.32,447.81zM626.50,358.56C619.77,359.00 617.43,358.71 611.75,356.72C608.04,355.41 603.87,353.29 602.49,351.99C601.00,350.59 600.34,349.26 600.87,348.73C601.40,348.20 603.07,348.50 604.94,349.47C606.69,350.37 611.54,351.99 615.72,353.06C620.07,354.17 626.67,355.00 631.16,355.00C635.47,355.00 639.00,355.40 639.00,355.88C639.00,356.37 637.99,357.05 636.75,357.40C635.51,357.75 630.90,358.28 626.50,358.56zM498.00,351.52C493.32,351.73 487.48,351.44 485.00,350.87C482.52,350.29 480.05,349.39 479.50,348.86C478.86,348.24 480.11,348.18 483.00,348.70C485.48,349.14 490.88,349.44 495.01,349.37C499.14,349.31 506.34,348.31 511.01,347.17C515.68,346.03 521.30,344.79 523.50,344.41C525.70,344.04 527.24,344.02 526.92,344.37C526.60,344.71 521.87,346.38 516.42,348.06C509.73,350.12 503.73,351.25 498.00,351.52zM545.75,347.12C544.79,347.64 544.00,347.72 544.01,347.29C544.02,346.85 544.72,344.25 545.56,341.50C546.50,338.46 546.87,334.90 546.52,332.43C546.20,330.19 544.67,325.69 543.13,322.43C541.58,319.17 540.01,314.14 539.63,311.25C539.24,308.36 539.19,306.00 539.51,306.00C539.82,306.00 541.75,306.86 543.79,307.90C545.83,308.95 548.50,310.87 549.72,312.18C550.94,313.49 552.62,316.51 553.47,318.90C554.31,321.30 555.00,326.15 555.00,329.69C555.00,333.23 554.50,337.11 553.88,338.32C553.26,339.52 551.57,341.78 550.13,343.34C548.68,344.90 546.71,346.60 545.75,347.12zM648.55,348.00C647.24,348.00 644.82,346.38 642.68,344.06C639.36,340.48 638.70,340.18 635.31,340.72C631.60,341.33 631.60,341.33 633.80,338.53C635.01,336.99 636.00,334.70 636.00,333.44C636.00,332.18 634.83,329.77 633.41,328.08C631.65,325.98 629.92,325.00 628.00,325.00C625.31,325.00 625.18,325.21 625.25,329.55C625.30,332.62 624.67,334.97 623.31,336.80C622.04,338.51 620.17,339.61 618.21,339.81C616.50,339.98 613.96,339.37 612.56,338.45C611.14,337.52 609.50,335.06 608.85,332.89C608.21,330.75 607.10,329.00 606.40,329.00C605.69,329.00 603.85,330.16 602.31,331.57C600.76,332.98 599.95,334.33 600.50,334.57C601.05,334.81 603.02,335.94 604.88,337.07C607.24,338.51 607.95,339.45 607.22,340.18C606.60,340.80 603.05,341.07 598.54,340.84C593.36,340.58 590.62,340.00 590.02,339.04C589.47,338.15 589.70,336.55 590.63,334.76C591.44,333.18 593.86,330.14 596.01,327.99C598.16,325.84 601.70,323.17 603.88,322.06C606.07,320.95 610.25,319.76 613.18,319.42C616.10,319.08 622.00,319.30 626.28,319.90C630.56,320.50 635.96,321.94 638.28,323.10C640.60,324.27 643.78,326.41 645.34,327.86C646.90,329.31 648.75,331.62 649.46,333.00C650.16,334.38 651.04,337.56 651.41,340.08C651.77,342.59 651.78,345.41 651.43,346.33C651.08,347.25 649.78,348.00 648.55,348.00zM464.10,336.95C463.77,336.93 461.33,335.78 458.68,334.40C453.87,331.89 453.87,331.89 456.42,329.88C457.83,328.78 459.38,328.12 459.87,328.42C460.35,328.72 462.49,327.63 464.63,326.00C466.76,324.38 471.26,321.01 474.63,318.52C478.00,316.03 482.73,313.25 485.13,312.33C488.28,311.13 492.57,310.67 500.50,310.70C509.39,310.73 512.61,311.16 517.28,312.95C521.00,314.38 525.23,317.17 529.09,320.75C532.40,323.81 535.75,327.54 536.52,329.03C537.29,330.53 537.66,332.01 537.34,332.32C537.02,332.64 533.78,332.64 530.13,332.33C525.02,331.88 523.10,331.26 521.77,329.63C520.82,328.46 520.03,326.92 520.02,326.21C520.01,325.25 520.49,325.19 521.93,325.96C523.00,326.53 524.13,327.00 524.46,327.00C524.78,327.00 524.27,325.81 523.31,324.35C522.36,322.89 519.18,320.64 516.26,319.35C513.34,318.06 510.06,317.00 508.97,317.00C507.89,317.00 507.00,317.39 507.00,317.88C507.00,318.36 507.68,319.32 508.50,320.00C509.32,320.68 510.00,322.48 510.00,323.99C510.00,325.50 509.07,327.92 507.93,329.37C506.14,331.64 505.10,332.00 500.38,332.00C497.37,332.00 493.59,331.32 491.99,330.49C490.00,329.47 488.70,327.72 487.88,324.99C487.22,322.80 486.50,321.00 486.28,321.00C486.05,321.00 485.00,321.47 483.93,322.04C482.87,322.60 482.00,323.96 482.00,325.05C482.00,326.14 482.55,327.90 483.21,328.97C483.88,330.04 484.14,331.20 483.78,331.55C483.43,331.90 480.83,332.29 477.99,332.42C475.15,332.55 472.53,333.11 472.17,333.66C471.80,334.22 469.97,335.20 468.10,335.84C466.23,336.48 464.43,336.98 464.10,336.95zM458.90,327.00C458.52,327.00 457.94,326.28 457.60,325.40C457.23,324.43 458.08,322.43 459.74,320.37C461.26,318.48 463.94,315.26 465.71,313.22C468.61,309.86 468.85,309.75 468.21,312.08C467.82,313.50 465.72,317.44 463.55,320.83C461.37,324.22 459.28,327.00 458.90,327.00zM338.35,305.53C340.08,303.34 342.63,300.42 344.01,299.03C345.38,297.64 348.53,294.81 351.01,292.75C353.48,290.69 354.88,289.01 354.12,289.00C353.36,289.00 350.44,290.30 347.62,291.89C344.80,293.48 341.58,295.05 340.45,295.39C338.55,295.96 338.40,295.57 338.32,289.75C338.28,286.31 337.97,280.12 337.64,276.00C337.30,271.88 337.04,266.70 337.05,264.50C337.06,262.30 337.44,259.13 337.90,257.45C338.35,255.78 338.50,250.94 338.23,246.69C337.81,240.14 337.52,239.15 336.30,240.16C335.51,240.82 334.16,242.72 333.30,244.39C332.07,246.77 331.70,251.08 331.61,264.13C331.55,273.37 331.90,280.76 332.39,280.67C332.87,280.58 333.65,281.85 334.12,283.50C334.59,285.15 335.03,289.46 335.11,293.07C335.18,296.69 334.92,300.66 334.53,301.90C334.14,303.13 334.13,305.35 334.51,306.82C335.21,309.50 335.21,309.50 338.35,305.53zM453.60,306.00C453.27,306.00 453.00,305.76 453.00,305.46C453.00,305.16 453.89,303.18 454.98,301.04C456.10,298.85 460.11,294.61 464.23,291.27C468.23,288.03 474.33,283.67 477.80,281.58C481.26,279.50 485.76,277.58 487.80,277.32C489.83,277.06 493.98,277.30 497.00,277.84C500.02,278.39 507.27,279.73 513.10,280.82C518.93,281.91 525.62,283.79 527.98,284.99C530.34,286.19 533.33,288.24 534.63,289.54C535.94,290.84 537.00,291.40 537.00,290.78C537.00,290.16 538.09,290.67 539.42,291.92C540.75,293.17 542.36,295.46 543.00,297.01C543.87,299.09 543.88,300.36 543.05,301.91C542.43,303.06 541.47,304.00 540.91,304.00C540.35,304.00 529.08,300.38 515.86,295.95C491.83,287.91 491.83,287.91 486.20,289.55C483.10,290.45 478.75,292.10 476.53,293.23C474.31,294.35 470.60,296.57 468.29,298.16C465.97,299.75 461.85,302.16 459.14,303.52C456.43,304.89 453.94,306.00 453.60,306.00zM667.25,226.00C667.66,226.00 668.00,225.78 668.00,225.51C668.00,225.24 666.42,222.95 664.50,220.43C662.58,217.91 661.00,215.21 661.00,214.42C661.00,213.64 661.79,213.00 662.76,213.00C663.72,213.00 666.06,213.44 667.94,213.98C669.83,214.52 671.62,214.72 671.92,214.41C672.22,214.11 671.35,213.01 669.99,211.97C668.62,210.93 666.26,209.80 664.75,209.46C663.24,209.12 660.43,209.36 658.50,210.00C656.34,210.71 655.00,211.80 655.00,212.85C655.00,213.78 656.16,216.24 657.58,218.33C659.00,220.42 661.58,223.00 663.33,224.06C665.07,225.12 666.84,225.99 667.25,226.00zM385.00,213.71C386.38,213.38 390.65,212.60 394.50,211.96C398.52,211.30 403.10,209.77 405.25,208.39C407.31,207.06 409.00,205.47 409.00,204.85C409.00,204.08 407.09,203.90 402.94,204.27C399.45,204.59 394.65,205.91 391.60,207.41C388.70,208.83 385.46,210.96 384.41,212.15C382.51,214.29 382.51,214.30 385.00,213.71zM378.76,204.00C379.19,204.00 381.29,203.06 383.44,201.91C385.59,200.75 390.86,197.09 395.14,193.77C399.43,190.44 402.71,187.33 402.41,186.86C402.12,186.39 401.12,185.99 400.19,185.98C399.26,185.98 397.96,185.62 397.29,185.20C396.45,184.67 397.30,183.02 400.16,179.67C402.40,177.05 403.96,174.63 403.63,174.29C403.29,173.96 401.32,174.20 399.26,174.85C397.19,175.49 391.03,178.37 385.58,181.26C380.12,184.14 375.48,187.04 375.26,187.70C374.99,188.53 376.79,188.99 381.07,189.20C387.27,189.50 387.27,189.50 382.63,196.26C380.08,199.98 378.00,203.24 378.00,203.51C378.00,203.78 378.34,204.00 378.76,204.00zM343.71,192.97C344.15,192.95 348.74,189.17 353.92,184.57C360.08,179.11 364.75,175.79 367.42,174.99C369.66,174.32 372.63,173.36 374.02,172.86C375.41,172.36 377.15,170.51 377.91,168.73C378.67,166.95 380.87,163.27 382.80,160.53C386.31,155.57 386.31,155.57 383.40,157.42C381.81,158.44 378.62,160.79 376.33,162.64C374.04,164.49 371.24,167.49 370.12,169.31C368.83,171.40 365.47,174.05 361.04,176.48C357.18,178.60 352.03,182.23 349.60,184.56C347.17,186.89 344.67,189.74 344.06,190.90C343.44,192.05 343.28,192.99 343.71,192.97zM432.11,181.40C433.27,180.36 436.42,176.74 439.11,173.36C441.80,169.98 444.00,166.94 444.00,166.61C444.00,166.27 443.51,166.00 442.90,166.00C442.30,166.00 440.49,166.94 438.87,168.09C437.26,169.24 434.61,172.50 432.98,175.34C431.35,178.18 430.01,181.13 430.01,181.90C430.00,182.95 430.54,182.82 432.11,181.40zM639.94,158.54C640.43,158.24 641.13,156.21 641.49,154.04C641.86,151.87 641.62,147.48 640.96,144.30C640.30,141.11 638.63,136.25 637.25,133.50C635.87,130.75 633.52,126.70 632.03,124.50C630.54,122.30 628.05,118.57 626.50,116.21C624.94,113.84 623.23,111.64 622.70,111.32C622.09,110.94 621.99,112.80 622.44,116.34C622.94,120.33 624.67,124.78 628.44,131.73C631.35,137.10 634.66,144.20 635.80,147.50C636.94,150.80 638.13,154.76 638.46,156.29C638.79,157.83 639.46,158.84 639.94,158.54zM432.38,157.97C440.28,158.00 442.25,157.60 450.38,154.37C455.39,152.37 462.99,148.99 467.25,146.86C471.51,144.72 475.00,142.69 475.00,142.35C475.00,142.00 472.64,141.97 469.75,142.26C466.86,142.56 458.88,144.64 452.00,146.87C445.12,149.11 436.97,151.62 433.87,152.46C430.77,153.30 427.17,154.87 425.87,155.96C423.50,157.93 423.50,157.93 432.38,157.97zM578.80,154.27C578.96,153.20 578.15,149.79 576.99,146.69C575.82,143.59 572.90,138.37 570.48,135.08C568.07,131.80 563.71,127.23 560.80,124.91C557.88,122.60 553.71,119.90 551.52,118.91C549.34,117.93 547.38,117.28 547.18,117.48C546.98,117.68 551.26,122.27 556.69,127.67C562.98,133.94 568.72,140.89 572.53,146.85C576.69,153.37 578.59,155.62 578.80,154.27zM541.72,143.62C541.98,143.35 540.94,140.83 539.41,138.01C537.88,135.20 534.85,131.29 532.68,129.33C530.51,127.37 526.44,124.72 523.62,123.43C520.80,122.15 516.48,120.81 514.00,120.47C509.50,119.84 509.50,119.84 517.00,124.00C521.12,126.29 526.75,130.02 529.50,132.29C532.25,134.55 536.02,138.14 537.87,140.25C539.72,142.37 541.45,143.88 541.72,143.62zM398.35,138.00C397.12,138.00 395.88,137.61 395.58,137.13C395.29,136.66 395.82,135.59 396.77,134.75C397.72,133.92 399.94,132.51 401.70,131.62C403.57,130.67 407.31,130.01 410.70,130.02C413.89,130.02 417.14,130.44 417.92,130.93C419.00,131.61 418.40,132.23 415.42,133.48C413.26,134.39 409.04,135.78 406.04,136.57C403.04,137.35 399.58,138.00 398.35,138.00zM511.20,138.00C511.69,138.00 511.28,136.91 510.30,135.58C509.31,134.25 506.70,131.98 504.50,130.54C502.30,129.10 498.07,127.21 495.10,126.35C490.84,125.10 488.94,125.00 486.10,125.87C484.12,126.47 481.15,128.07 479.50,129.41C476.50,131.85 476.50,131.85 486.03,131.29C493.19,130.87 496.95,131.13 501.11,132.34C504.15,133.23 507.47,134.86 508.48,135.98C509.49,137.09 510.71,138.00 511.20,138.00zM503.56,111.00C503.25,111.00 503.00,110.63 503.00,110.17C503.00,109.72 504.01,108.40 505.25,107.24C506.49,106.08 508.77,104.65 510.32,104.07C511.86,103.48 514.06,103.00 515.19,103.00C516.89,103.00 517.03,103.26 516.02,104.48C515.35,105.29 512.39,107.09 509.46,108.48C506.52,109.86 503.87,111.00 503.56,111.00z" />

</svg>
