<svg width="16" height="16" viewBox="0 0 16 16" xmlns="http://www.w3.org/2000/svg">
    <g fill="none" fill-rule="evenodd">
        <path d="M0 0h16v16H0z"/>
        <g fill="#6D6D6D" fill-rule="nonzero">
            <path d="M15 5.926H1a.6.6 0 0 0-.6.6V13A2.6 2.6 0 0 0 3 15.6h10a2.6 2.6 0 0 0 2.6-2.6V6.526a.6.6 0 0 0-.6-.6zm-.6 1.2V13a1.4 1.4 0 0 1-1.4 1.4H3l-.135-.006A1.4 1.4 0 0 1 1.6 13V7.126h12.8z"/>
            <path d="M13 1.505H3a2.6 2.6 0 0 0-2.6 2.6v2.421a.6.6 0 0 0 .6.6h14a.6.6 0 0 0 .6-.6v-2.42a2.6 2.6 0 0 0-2.6-2.6zm0 1.2.135.007A1.4 1.4 0 0 1 14.4 4.105v1.821H1.6v-1.82a1.4 1.4 0 0 1 1.4-1.4h10z"/>
            <path d="M5.053.4a.6.6 0 0 1 .6.6v2.947a.6.6 0 1 1-1.2 0V1a.6.6 0 0 1 .6-.6zM10.947.4a.6.6 0 0 1 .6.6v2.947a.6.6 0 1 1-1.2 0V1a.6.6 0 0 1 .6-.6zM11.684 11.453a.6.6 0 1 1 0 1.2h-2.21a.6.6 0 0 1 0-1.2h2.21zM6.526 11.453a.6.6 0 1 1 0 1.2h-2.21a.6.6 0 0 1 0-1.2h2.21zM11.684 8.505a.6.6 0 1 1 0 1.2h-2.21a.6.6 0 1 1 0-1.2h2.21zM6.526 8.505a.6.6 0 1 1 0 1.2h-2.21a.6.6 0 1 1 0-1.2h2.21z"/>
        </g>
    </g>
</svg>
