<svg xmlns="http://www.w3.org/2000/svg" width="18" height="18" viewBox="0 0 48 48">
  <path fill="#EA4335" d="M24 9.5c3.26 0 6.02 1.12 8.28 3.02l6.2-6.2C34.3 2.5 29.59 0 24 0 14.74 0 6.97 5.98 3.34 14.5l7.96 6.18C13.09 13.13 18.05 9.5 24 9.5z"/>
  <path fill="#34A853" d="M46.1 24.5c0-1.56-.14-3.06-.4-4.5H24v9h12.42c-.55 2.97-2.3 5.5-4.95 7.15l7.64 5.96C43.95 37.62 46.1 31.51 46.1 24.5z"/>
  <path fill="#FBBC05" d="M10.3 28.68c-.53-1.56-.83-3.23-.83-4.98s.3-3.42.83-4.98L2.34 14.5C.85 17.58 0 20.96 0 24.5s.85 6.92 2.34 10l7.96-6.18z"/>
  <path fill="#4285F4" d="M24 48c6.54 0 12.03-2.15 16.04-5.85l-7.64-5.96c-2.12 1.42-4.83 2.31-8.4 2.31-5.95 0-10.91-3.63-12.7-8.68l-7.96 6.18C6.97 42.02 14.74 48 24 48z"/>
</svg>