<?xml version="1.0" encoding="UTF-8"?>
<svg width="152px" height="36px" viewBox="0 0 152 36" version="1.1" xmlns="http://www.w3.org/2000/svg" xmlns:xlink="http://www.w3.org/1999/xlink">
    <title>DispatchAI备份 2</title>
    <g id="页面-1" stroke="none" stroke-width="1" fill="none" fill-rule="evenodd">
        <g id="Web_Dispatch-AI_Landing-page" transform="translate(-240.000000, -22.000000)" fill-rule="nonzero">
            <g id="DispatchAI备份-2" transform="translate(240.000000, 22.000000)">
                <path d="M18.2035128,0 L7.09169111,0 L0,30.6704348 L11.1118217,30.6704348 C21.2750733,30.6704348 29.2701646,24.2111238 31.3479849,15.3126324 C33.4258052,6.36897099 28.7281245,0 18.2035128,0 Z M26.2437741,15.3126324 C24.3014638,22.6753435 18.926233,26.0179241 11.8345418,26.0179241 L6.00761094,26.0179241 L10.9311417,4.60734072 L16.7580726,4.60734072 C24.7531639,4.60734072 27.7795543,8.67264135 26.2437741,15.3126324 Z" id="形状" fill="#A8F574"></path>
                <path d="M36.0196909,14.2830313 C36.9662587,14.2830313 37.8587369,13.5528219 38.0750952,12.6332989 C38.2914536,11.6867311 37.7235129,10.9565217 36.7769452,10.9565217 C35.8574222,10.9565217 34.964944,11.6867311 34.7485857,12.6332989 C34.5322273,13.5528219 35.100168,14.2830313 36.0196909,14.2830313 Z M30.9893595,30.2665039 L33.9101971,30.2665039 L37.1555723,16.2573012 L34.2347346,16.2573012 L30.9893595,30.2665039 Z" id="形状" fill="#060606"></path>
                <path d="M40.8517935,30.6721758 C44.7732884,30.6721758 46.5852896,28.5626819 47.0720958,26.4261433 C47.5589021,24.3166495 46.7205135,23.3971265 45.097826,22.3153348 C43.0153769,20.9090055 42.3392571,20.6115128 42.5285706,19.7190347 C42.7178842,18.9888252 43.4751384,18.4749742 45.0437364,18.4749742 C46.4500656,18.4749742 47.5589021,19.0699596 48.0457084,19.6649451 L48.6947834,16.798197 C48.1268428,16.3925251 46.7205135,15.8786741 45.0166916,15.8786741 C42.474481,15.8786741 40.3108976,17.3931825 39.7700018,19.7731242 C39.2291059,22.0989764 40.6895247,22.9914546 42.3122123,24.0191567 C43.7455863,24.9386797 44.5298853,25.5607099 44.313527,26.5884121 C44.0971686,27.507935 43.0153769,28.0758757 41.1492862,28.0758757 C38.8775236,28.0758757 37.4171048,26.4802329 37.4171048,26.4802329 L36.7409849,29.3469809 C36.7409849,29.3469809 38.4718517,30.6721758 40.8517935,30.6721758 Z" id="路径" fill="#060606"></path>
                <path d="M47.1455514,36 L50.066389,36 L51.7431662,28.7790403 C52.419286,29.7796976 53.7174361,30.6721758 56.0162435,30.6721758 C60.2893208,30.6721758 64.0755918,27.3727111 65.0221595,23.2889473 C65.9687273,19.2051836 63.6969647,15.8786741 59.4238874,15.8786741 C57.3955279,15.8786741 55.5023924,16.662973 54.3124215,17.6365856 L54.636959,16.2843459 L51.7161214,16.2843459 L47.1455514,36 Z M56.6653185,28.0758757 C54.0419736,28.0758757 52.1488381,26.3179641 52.8520027,23.2889473 C53.5551673,20.2328857 56.2596466,18.4749742 58.8829915,18.4749742 C61.5063364,18.4749742 62.8044865,20.6385576 62.1824563,23.2889473 C61.560426,25.939337 59.2886634,28.0758757 56.6653185,28.0758757 Z" id="形状" fill="#060606"></path>
                <path d="M71.8861182,30.6721758 C74.1578808,30.6721758 75.834658,29.7796976 76.9975841,28.8331299 L76.618957,30.2665039 L79.5397946,30.2665039 L82.8392593,16.2843459 L79.9184217,16.2843459 L79.5938842,17.6365856 C78.83663,16.662973 77.3221216,15.8786741 75.2937621,15.8786741 C71.0206848,15.8786741 67.2344138,19.2051836 66.2878461,23.2889473 C65.3412783,27.3727111 67.6130409,30.6721758 71.8861182,30.6721758 Z M72.697462,28.0758757 C70.0741171,28.0758757 68.5866535,25.9122922 69.2086837,23.2619025 C69.8307139,20.6115128 72.2917901,18.4749742 74.915135,18.4749742 C77.5114351,18.4749742 79.1611675,20.2328857 78.4580029,23.2619025 C77.7548383,26.3179641 75.2937621,28.0758757 72.697462,28.0758757 Z" id="形状" fill="#060606"></path>
                <polygon id="路径" fill="#060606" points="86.1855595 30.2665039 89.1063971 30.2665039 91.8920108 18.2856606 96.6789391 18.2856606 97.219835 15.9057188 92.4329066 15.9057188 93.4606088 11.443328 83.5892593 18.2856606 88.9711731 18.2856606"></polygon>
                <path d="M101.850726,30.6721758 C103.2841,30.6721758 105.664041,30.3476383 107.151505,29.3469809 L107.773535,26.6425016 C107.773535,26.6425016 105.718131,28.1029205 102.445711,28.1029205 C99.3355599,28.1029205 97.7940067,26.1556954 98.4701266,23.2619025 C99.0921568,20.6115128 101.634367,18.4479294 104.392936,18.4479294 C107.746491,18.4479294 108.909417,20.5574232 108.909417,20.5574232 L109.612581,17.5554512 C108.638969,16.3925251 106.718788,15.8786741 104.987922,15.8786741 C100.444396,15.8786741 96.576991,19.1781388 95.6304233,23.2619025 C94.6838555,27.3456663 96.6310806,30.6721758 101.850726,30.6721758 Z" id="路径" fill="#060606"></path>
                <path d="M119.997095,15.8516293 C116.859899,15.8516293 115.39948,17.6906752 115.183122,17.9881679 L116.697631,11.4162832 L113.668614,11.9030895 L109.422581,30.2665039 L112.343419,30.2665039 L114.236554,22.1260212 C114.912674,19.6919899 117.022168,18.4479294 118.969393,18.4479294 C120.889573,18.4479294 121.809096,19.7190347 121.295245,21.9637525 L119.375065,30.2665039 L122.295903,30.2665039 L124.297217,21.6662597 C125.189696,17.8258991 123.134291,15.8516293 119.997095,15.8516293 Z" id="路径" fill="#060606"></path>
                <path d="M139.213074,11.9030895 L136.373371,11.9030895 L123.986856,30.2665039 L127.448589,30.2665039 L130.288292,25.9122922 L138.942626,25.9122922 L139.69988,30.2665039 L143.134569,30.2665039 L139.213074,11.9030895 Z M132.073249,23.1537234 L137.049491,15.6352709 L138.482865,23.1537234 L132.073249,23.1537234 Z" id="形状" fill="#060606"></path>
                <polygon id="路径" fill="#060606" points="144.810222 30.2665039 147.758104 30.2665039 152.004136 11.9030895 149.056254 11.9030895"></polygon>
            </g>
        </g>
    </g>
</svg>