<svg width="126" height="30" viewBox="0 0 126 30" xmlns="http://www.w3.org/2000/svg">
    <g fill-rule="nonzero" fill="none">
        <path d="M15.17 0H5.91L0 25.559h9.26c8.47 0 15.132-5.383 16.863-12.798C27.855 5.307 23.94 0 15.17 0zm6.7 12.76c-1.619 6.136-6.098 8.922-12.008 8.922H5.006L9.11 3.839h4.856c6.663 0 9.185 3.388 7.905 8.922z" fill="#A8F574"/>
        <path d="M29.916 11.903c.79 0 1.533-.609 1.713-1.375.18-.79-.293-1.398-1.082-1.398-.766 0-1.51.609-1.69 1.398-.18.766.293 1.375 1.06 1.375zm-4.192 13.32h2.434l2.705-11.675h-2.434l-2.705 11.674zM33.943 25.56c3.268 0 4.778-1.758 5.184-3.538.405-1.758-.293-2.524-1.645-3.426-1.736-1.172-2.3-1.42-2.142-2.163.158-.609.79-1.037 2.096-1.037 1.172 0 2.096.496 2.502.991l.541-2.389c-.473-.338-1.645-.766-3.065-.766-2.119 0-3.922 1.262-4.372 3.246-.451 1.938.766 2.682 2.118 3.538 1.195.766 1.848 1.285 1.668 2.141-.18.766-1.082 1.24-2.637 1.24-1.893 0-3.11-1.33-3.11-1.33l-.564 2.389s1.443 1.104 3.426 1.104zM39.088 30h2.434l1.397-6.017c.564.833 1.646 1.577 3.561 1.577 3.561 0 6.716-2.75 7.505-6.153.789-3.403-1.104-6.175-4.665-6.175-1.69 0-3.268.654-4.26 1.465l.27-1.127h-2.433L39.088 30zm7.933-6.603c-2.186 0-3.764-1.465-3.178-3.99.586-2.546 2.84-4.011 5.026-4.011s3.268 1.803 2.75 4.011c-.519 2.21-2.412 3.99-4.598 3.99zM59.605 25.56c1.893 0 3.29-.744 4.26-1.532l-.316 1.194h2.434l2.75-11.652h-2.434l-.27 1.127c-.632-.811-1.894-1.465-3.584-1.465-3.561 0-6.716 2.772-7.505 6.175-.789 3.404 1.104 6.153 4.665 6.153zm.676-2.163c-2.186 0-3.425-1.803-2.907-4.012.518-2.209 2.57-3.99 4.755-3.99 2.164 0 3.539 1.466 2.953 3.99-.586 2.547-2.637 4.012-4.8 4.012zM71.421 25.222h2.434l2.322-9.984h3.989l.45-1.983h-3.989l.857-3.719-8.226 5.702h4.485zM84.476 25.56c1.194 0 3.177-.27 4.417-1.104l.518-2.254s-1.713 1.217-4.44 1.217c-2.591 0-3.876-1.623-3.313-4.034.519-2.209 2.637-4.012 4.936-4.012 2.795 0 3.764 1.758 3.764 1.758l.586-2.501c-.812-.97-2.412-1.398-3.854-1.398-3.786 0-7.01 2.75-7.798 6.153-.789 3.403.834 6.175 5.184 6.175zM99.498 13.21c-2.615 0-3.832 1.532-4.012 1.78l1.262-5.476-2.524.405-3.539 15.303h2.435l1.577-6.784c.564-2.028 2.321-3.065 3.944-3.065 1.6 0 2.367 1.06 1.938 2.93l-1.6 6.92h2.434l1.668-7.168c.744-3.2-.97-4.845-3.583-4.845zM115.41 9.92h-2.366l-10.322 15.302h2.885l2.367-3.628h7.212l.63 3.628h2.863L115.41 9.92zm-5.949 9.375 4.147-6.266 1.194 6.266h-5.341zM120.01 25.222h2.457l3.538-15.303h-2.457z" fill="#FFF"/>
    </g>
</svg>
