<svg width="16" height="16" viewBox="0 0 16 16" xmlns="http://www.w3.org/2000/svg">
    <g fill="none" fill-rule="evenodd">
        <path d="M0 0h16v16H0z"/>
        <path d="M12.827.898H3.173A1.6 1.6 0 0 0 1.957 3.54l3.706 4.328a1.4 1.4 0 0 1 .337.91v3.72a1.6 1.6 0 0 0 .892 1.435l.842.416A1.57 1.57 0 0 0 10 12.94V8.778c0-.334.12-.657.337-.91l3.706-4.329a1.6 1.6 0 0 0-1.216-2.64zm0 1.2a.4.4 0 0 1 .304.66L9.425 7.087a2.6 2.6 0 0 0-.625 1.69v4.163a.37.37 0 0 1-.534.332l-.843-.416a.4.4 0 0 1-.223-.359v-3.72a2.6 2.6 0 0 0-.625-1.69L2.869 2.758a.4.4 0 0 1 .304-.66h9.654z" fill="#060606" fill-rule="nonzero"/>
    </g>
</svg>
